<svg width="512" height="482" viewBox="0 0 512 482" fill="none" xmlns="http://www.w3.org/2000/svg">
<path d="M266.209 127.526H497V395.984C497 434.205 463.363 467 419.556 467H92.4444C48.6367 467 15 434.205 15 395.984V127.526H245.791H246.565L247.334 127.447C253.092 126.851 258.908 126.851 264.666 127.447L265.435 127.526H266.209Z" stroke="#636C76" stroke-width="30"/>
<path d="M15 92.4445C15 49.6729 49.6729 15 92.4444 15H419.556C462.326 15 497 49.673 497 92.4445V127.222H15V92.4445Z" stroke="#636C76" stroke-width="30"/>
<path d="M301.13 233.065C301.13 257.954 280.954 278.13 256.065 278.13C231.176 278.13 211 257.954 211 233.065C211 208.176 231.176 188 256.065 188C280.954 188 301.13 208.176 301.13 233.065Z" fill="#636C76"/>
<path d="M436.13 233.065C436.13 257.954 415.954 278.13 391.065 278.13C366.176 278.13 346 257.954 346 233.065C346 208.176 366.176 188 391.065 188C415.954 188 436.13 208.176 436.13 233.065Z" fill="#636C76"/>
<path d="M301.13 360.065C301.13 384.954 280.954 405.13 256.065 405.13C231.176 405.13 211 384.954 211 360.065C211 335.176 231.176 315 256.065 315C280.954 315 301.13 335.176 301.13 360.065Z" fill="#636C76"/>
<path d="M166.13 360.065C166.13 384.954 145.954 405.13 121.065 405.13C96.1759 405.13 76 384.954 76 360.065C76 335.176 96.1759 315 121.065 315C145.954 315 166.13 335.176 166.13 360.065Z" fill="#636C76"/>
<path d="M166.13 233.065C166.13 257.954 145.954 278.13 121.065 278.13C96.1759 278.13 76 257.954 76 233.065C76 208.176 96.1759 188 121.065 188C145.954 188 166.13 208.176 166.13 233.065Z" fill="#636C76"/>
</svg>
