<svg width="32" height="42" viewBox="0 0 32 42" fill="none" xmlns="http://www.w3.org/2000/svg">
<path d="M1.5 41H30.5C30.775 41 31 40.775 31 40.5V11H22.5C21.673 11 21 10.327 21 9.5V1H1.5C1.225 1 1 1.225 1 1.5V40.5C1 40.775 1.225 41 1.5 41Z" fill="white"/>
<path d="M30.293 9.99613L22 1.70312V9.49613C22 9.77113 22.225 9.99613 22.5 9.99613H30.293Z" fill="white"/>
<path opacity="0.67" fill-rule="evenodd" clip-rule="evenodd" d="M31.56 9.854L22.146 0.439C21.8642 0.158905 21.4833 0.00117333 21.086 0H1.5C0.673 0 0 0.673 0 1.5V40.5C0 41.327 0.673 42 1.5 42H30.5C31.327 42 32 41.327 32 40.5V10.914C32 10.514 31.844 10.137 31.56 9.854ZM22 1.707L30.293 10H22.5C22.3675 9.99974 22.2405 9.94697 22.1467 9.85326C22.053 9.75955 22.0003 9.63253 22 9.5V1.707ZM1.5 41H30.5C30.775 41 31 40.775 31 40.5V11H22.5C21.673 11 21 10.327 21 9.5V1H1.5C1.225 1 1 1.225 1 1.5V40.5C1 40.776 1.224 41 1.5 41Z" fill="#605E5C"/>
</svg>
