<svg width="27" height="33" viewBox="0 0 27 33" fill="none" xmlns="http://www.w3.org/2000/svg">
<path d="M5.57938 27.8603L5.58634 27.8506L5.59251 27.8403L5.59896 27.8295C5.84309 27.4227 5.63113 26.8952 5.17335 26.7703L5.09441 27.0597L5.15949 26.7669C4.43715 26.6064 3.94933 25.9635 3.94933 25.2293V22.6763C3.94933 21.9552 4.42605 21.3444 5.17109 21.1359L5.20023 21.1286C5.66683 21.012 5.88813 20.4777 5.64068 20.0653L5.38343 20.2197L5.63304 20.0532C5.23979 19.4634 5.34649 18.6544 5.84082 18.1152L7.66685 16.2892C7.94276 16.0133 8.34578 15.8472 8.80347 15.8472C9.08394 15.8472 9.36276 15.9274 9.60045 16.0858L9.76686 15.8362L9.61251 16.0935C10.0249 16.3409 10.5592 16.1196 10.6758 15.653L10.6841 15.62L10.6841 15.62L10.6851 15.6159C10.8462 14.9312 11.497 14.4021 12.2235 14.4021H14.7765C15.5107 14.4021 16.1536 14.8899 16.3141 15.6123L16.6069 15.5472L16.3175 15.6261C16.4424 16.0839 16.9699 16.2959 17.3767 16.0518L17.3846 16.047C17.6825 15.8773 17.968 15.799 18.2447 15.799C18.6501 15.799 19.0545 15.9624 19.3331 16.241L21.1636 18.0715C21.6877 18.5955 21.775 19.3608 21.405 20.0213C21.1615 20.4332 21.3829 20.9642 21.8479 21.0805L21.881 21.0887L21.881 21.0888L21.8887 21.0905C22.611 21.2511 23.0988 21.8939 23.0988 22.6281V25.1811C23.0988 25.9022 22.6221 26.513 21.8771 26.7215L21.8479 26.7288C21.3813 26.8454 21.16 27.3797 21.4075 27.7921L21.6647 27.6378L21.4206 27.8121C21.6044 28.0694 21.6538 28.4219 21.6538 28.7938C21.6538 28.954 21.7204 29.1046 21.8123 29.2143C21.9034 29.323 22.0544 29.431 22.2491 29.431H24.6031C25.5395 29.431 26.3 28.6705 26.3 27.7341V2.76868C26.3 2.51907 26.2903 2.21564 26.1732 1.92778C25.8932 1.23932 25.2515 0.7 24.4586 0.7H12.3699C9.99512 0.7 8.06994 2.62517 8.06994 5V6.63584C8.06994 7.43354 7.43354 8.06994 6.63584 8.06994H5C2.62518 8.06994 0.7 9.99512 0.7 12.3699V27.7823C0.7 28.7187 1.46052 29.4792 2.39692 29.4792H4.7039C4.90549 29.4792 5.06947 29.3776 5.17555 29.253C5.28072 29.1295 5.34624 28.9651 5.34624 28.7938H5.04624L5.34393 28.7566C5.30534 28.448 5.38116 28.1378 5.57938 27.8603ZM6.00963 11.9455H20.7977C20.898 11.9455 20.9794 12.0268 20.9794 12.1272C20.9794 12.2275 20.898 12.3089 20.7977 12.3089H6.00963C5.90929 12.3089 5.82794 12.2275 5.82794 12.1272C5.82794 12.0268 5.90929 11.9455 6.00963 11.9455ZM21.0385 8.69615H12.7052C12.6049 8.69615 12.5235 8.6148 12.5235 8.51445C12.5235 8.4141 12.6049 8.33276 12.7052 8.33276H21.0385C21.1389 8.33276 21.2202 8.4141 21.2202 8.51445C21.2202 8.6148 21.1389 8.69615 21.0385 8.69615ZM21.0385 5.08343H12.7052C12.6049 5.08343 12.5235 5.00208 12.5235 4.90173C12.5235 4.80139 12.6049 4.72004 12.7052 4.72004H21.0385C21.1389 4.72004 21.2202 4.80139 21.2202 4.90173C21.2202 5.00208 21.1389 5.08343 21.0385 5.08343Z" fill="white" stroke="#40545E" stroke-width="0.6"/>
<path d="M19.9312 26.9122C19.8348 26.7677 19.9312 26.4787 20.1239 26.4305L21.5689 26.0933C21.9543 25.997 22.2433 25.6116 22.2433 25.2263V22.6733C22.2433 22.2398 21.9543 21.9026 21.5208 21.8062L20.0757 21.4691C20.0317 21.4581 19.9903 21.4346 19.9542 21.4031C19.7191 21.198 19.9656 20.8531 20.1291 20.5874L20.6537 19.7349C20.8946 19.3496 20.8464 18.9161 20.5092 18.627L18.6788 16.7966C18.3898 16.5076 17.9562 16.4594 17.5709 16.6521L16.3185 17.4228C16.174 17.5191 15.8849 17.4228 15.8368 17.2301L15.4996 15.785C15.4032 15.3515 15.0179 15.0625 14.6325 15.0625H12.0795C11.646 15.0625 11.3088 15.3515 11.2125 15.785L10.9174 17.0498C10.8894 17.1696 10.902 17.3746 10.779 17.3746V17.3746C10.6078 17.3746 10.4198 17.324 10.2449 17.2627C10.0207 17.184 9.81056 17.0704 9.60906 16.9445L9.1412 16.6521C8.80401 16.4112 8.32231 16.5076 8.0333 16.7966L6.20285 18.627C5.91384 18.9161 5.86567 19.3978 6.05835 19.7349L6.82906 20.9874C6.84922 21.0277 6.86094 21.0764 6.86423 21.1231C6.87174 21.2297 6.81614 21.3341 6.73594 21.4047V21.4047C6.67757 21.4561 6.59811 21.478 6.52235 21.4957L5.19129 21.8062C4.80594 21.9026 4.46875 22.2879 4.46875 22.6733V25.2263C4.46875 25.6598 4.75777 25.997 5.19129 26.0933L6.63638 26.4305C6.82906 26.4787 6.9254 26.7677 6.82906 26.9122L6.05835 28.1646C5.96201 28.3573 5.91384 28.55 5.91384 28.6945C5.91384 28.9353 6.01018 29.128 6.15468 29.2725L7.98513 31.103C8.27415 31.392 8.75584 31.4402 9.09303 31.2475L9.86374 30.7658C10.0268 30.6435 10.328 30.5556 10.5919 30.5316C10.6806 30.5235 10.7886 30.555 10.8208 30.638V30.638C10.8301 30.662 10.8301 30.6821 10.8359 30.7071L11.1643 32.1145C11.2607 32.5481 11.5978 32.8371 12.0314 32.8371H14.5844C15.0179 32.8371 15.3551 32.5481 15.4514 32.1145L15.7886 30.6694C15.8368 30.4768 16.1258 30.3804 16.2703 30.4768L17.5227 31.2475C17.8599 31.4402 18.3416 31.392 18.6306 31.103L20.461 29.2725C20.6056 29.128 20.7019 28.8872 20.7019 28.6945C20.7019 28.6015 20.7019 28.5086 20.6857 28.4156C20.6481 28.2001 20.5067 28.0189 20.4057 27.8248L19.9312 26.9122ZM13.4283 27.7311C11.3088 27.7311 9.62289 26.0452 9.62289 23.9257C9.62289 21.8062 11.3088 20.1203 13.4283 20.1203C15.5477 20.1203 17.2337 21.8062 17.2337 23.9257C17.2337 26.0452 15.5477 27.7311 13.4283 27.7311Z" fill="#40545E"/>
</svg>
