<svg width="32" height="42" viewBox="0 0 32 42" fill="none" xmlns="http://www.w3.org/2000/svg">
<path d="M1.5 41H30.5C30.775 41 31 40.775 31 40.5V11H22.5C21.673 11 21 10.327 21 9.5V1H1.5C1.225 1 1 1.225 1 1.5V40.5C1 40.775 1.225 41 1.5 41Z" fill="white"/>
<path d="M30.293 9.99613L22 1.70312V9.49613C22 9.77112 22.225 9.99613 22.5 9.99613H30.293Z" fill="white"/>
<path opacity="0.67" fill-rule="evenodd" clip-rule="evenodd" d="M31.56 9.854L22.146 0.439C21.8642 0.158905 21.4833 0.00117333 21.086 0H1.5C0.673 0 0 0.673 0 1.5V40.5C0 41.327 0.673 42 1.5 42H30.5C31.327 42 32 41.327 32 40.5V10.914C32 10.514 31.844 10.137 31.56 9.854ZM22 1.707L30.293 10H22.5C22.3675 9.99974 22.2405 9.94697 22.1467 9.85326C22.053 9.75955 22.0003 9.63253 22 9.5V1.707ZM1.5 41H30.5C30.775 41 31 40.775 31 40.5V11H22.5C21.673 11 21 10.327 21 9.5V1H1.5C1.225 1 1 1.225 1 1.5V40.5C1 40.776 1.224 41 1.5 41Z" fill="#605E5C"/>
<path d="M0 22H28C29.1046 22 30 22.8954 30 24V34C30 35.1046 29.1046 36 28 36H0V22Z" fill="#8E94A9"/>
<path d="M1.864 25.7H6.076C8.029 25.7 8.83 26.483 8.83 28.238V29.462C8.83 31.217 8.029 32 6.076 32H1.864C1.684 32 1.594 31.91 1.594 31.73V25.97C1.594 25.79 1.684 25.7 1.864 25.7ZM2.971 27.077V30.632C2.971 30.713 3.007 30.749 3.088 30.749H6.04C7.102 30.749 7.453 30.407 7.453 29.345V28.355C7.453 27.293 7.102 26.951 6.04 26.951H3.088C3.007 26.951 2.971 26.987 2.971 27.077ZM9.45262 25.7H10.6586C10.7216 25.7 10.7576 25.727 10.7846 25.817L12.2426 30.659C12.2516 30.713 12.2786 30.722 12.3146 30.722H12.3596C12.3956 30.722 12.4136 30.713 12.4316 30.659L13.8896 26.222C14.0246 25.817 14.2316 25.7 14.5556 25.7H15.4466C15.8426 25.7 16.0316 25.844 16.1576 26.222L17.6516 30.659C17.6696 30.713 17.6876 30.722 17.7236 30.722H17.7776C17.8136 30.722 17.8316 30.713 17.8496 30.659L19.2716 25.817C19.2986 25.718 19.3526 25.7 19.4156 25.7H20.6306C20.7296 25.7 20.7386 25.799 20.7026 25.907L18.9746 31.316C18.8036 31.856 18.6236 32 18.2816 32H17.2286C16.8776 32 16.7156 31.847 16.5356 31.316L15.1226 27.041C15.1136 26.996 15.0956 26.978 15.0506 26.978H15.0146C14.9786 26.978 14.9516 26.996 14.9426 27.041L13.5116 31.316C13.3316 31.847 13.1696 32 12.8186 32H11.7926C11.3876 32 11.2076 31.874 11.0366 31.316L9.38062 25.907C9.34462 25.79 9.35362 25.7 9.45262 25.7ZM23.7734 25.7H28.3364C28.4714 25.7 28.5344 25.763 28.5344 25.898V26.78C28.5344 26.915 28.4714 26.987 28.3364 26.987H23.8274C22.9004 26.987 22.6304 27.257 22.6304 28.211V29.507C22.6304 30.461 22.9004 30.74 23.8274 30.74H26.7974C27.1124 30.74 27.2474 30.596 27.2474 30.191V29.462C27.2474 29.381 27.2204 29.345 27.1394 29.345H24.5024C24.3764 29.345 24.3044 29.273 24.3044 29.138V28.463C24.3044 28.328 24.3764 28.256 24.5024 28.256H28.2554C28.4354 28.256 28.5254 28.346 28.5254 28.526V30.623C28.5254 31.631 28.1294 32 27.4094 32H23.7734C21.9554 32 21.2534 31.352 21.2534 29.624V28.076C21.2534 26.348 21.9554 25.7 23.7734 25.7Z" fill="#F9F7F7"/>
<path d="M7.53277 1.03523L7.4654 11.0824L5.46551 11.1001C5.28871 11.1017 5.11976 11.1735 4.99587 11.2996C4.87198 11.4257 4.8032 11.5959 4.80477 11.7727L4.82246 13.7725L0.822593 13.8079C0.584407 13.81 0.365527 13.9391 0.248209 14.1464C0.131008 14.3537 0.133256 14.6078 0.254105 14.813C0.375094 15.0182 0.596211 15.1433 0.834385 15.1412L4.83425 15.1058L4.85194 17.1058C4.8535 17.2826 4.92527 17.4515 5.05137 17.5754C5.17748 17.6993 5.34767 17.7681 5.52447 17.7665L7.52436 17.7488L7.55974 21.7488C7.56185 21.987 7.69087 22.2059 7.89817 22.3232C8.10547 22.4404 8.35961 22.4381 8.56481 22.3173C8.77 22.1963 8.89513 21.9752 8.89303 21.737L8.85765 17.737L10.8576 17.7194C11.0344 17.7178 11.2033 17.646 11.3272 17.5199C11.4511 17.3938 11.5199 17.2236 11.5183 17.0468L11.5006 15.0469L31.0037 15C31.2419 14.9979 31.4608 14.8688 31.5781 14.6615C31.6953 14.4542 31.693 14.2001 31.5722 13.9949C31.4512 13.7897 31.2301 13.6646 30.9919 13.6667L11.4888 13.7136L11.4712 11.7137C11.4696 11.5369 11.3978 11.368 11.2717 11.2441C11.1456 11.1202 10.9754 11.0514 10.7986 11.053L8.79869 11.0706L8.86606 1.02344C8.86395 0.785253 8.73493 0.566373 8.52763 0.449055C8.32033 0.331854 8.06619 0.334102 7.86099 0.454951C7.6558 0.575939 7.53066 0.797056 7.53277 1.03523ZM10.1438 12.3921L10.1791 16.3919L6.1793 16.4273L6.14392 12.4275L10.1438 12.3921Z" fill="#8E94A9"/>
</svg>
