<svg width="32" height="42" viewBox="0 0 32 42" fill="none" xmlns="http://www.w3.org/2000/svg">
<path d="M1.5 41H30.5C30.775 41 31 40.775 31 40.5V11H22.5C21.673 11 21 10.327 21 9.5V1H1.5C1.225 1 1 1.225 1 1.5V40.5C1 40.775 1.225 41 1.5 41Z" fill="white"/>
<path d="M30.293 9.99613L22 1.70312V9.49613C22 9.77112 22.225 9.99613 22.5 9.99613H30.293Z" fill="white"/>
<path opacity="0.67" fill-rule="evenodd" clip-rule="evenodd" d="M31.56 9.854L22.146 0.439C21.8642 0.158905 21.4833 0.00117333 21.086 0H1.5C0.673 0 0 0.673 0 1.5V40.5C0 41.327 0.673 42 1.5 42H30.5C31.327 42 32 41.327 32 40.5V10.914C32 10.514 31.844 10.137 31.56 9.854ZM22 1.707L30.293 10H22.5C22.3675 9.99974 22.2405 9.94697 22.1467 9.85326C22.053 9.75955 22.0003 9.63253 22 9.5V1.707ZM1.5 41H30.5C30.775 41 31 40.775 31 40.5V11H22.5C21.673 11 21 10.327 21 9.5V1H1.5C1.225 1 1 1.225 1 1.5V40.5C1 40.776 1.224 41 1.5 41Z" fill="#605E5C"/>
<path d="M16 16H13C12.7348 16 12.4804 15.8946 12.2929 15.7071C12.1054 15.5196 12 15.2652 12 15C12 14.7348 12.1054 14.4804 12.2929 14.2929C12.4804 14.1054 12.7348 14 13 14H16C16.2652 14 16.5196 14.1054 16.7071 14.2929C16.8946 14.4804 17 14.7348 17 15C17 15.2652 16.8946 15.5196 16.7071 15.7071C16.5196 15.8946 16.2652 16 16 16Z" fill="#4F5465"/>
<path d="M9 16H6C5.73478 16 5.48043 15.8946 5.29289 15.7071C5.10536 15.5196 5 15.2652 5 15C5 14.7348 5.10536 14.4804 5.29289 14.2929C5.48043 14.1054 5.73478 14 6 14H9C9.26522 14 9.51957 14.1054 9.70711 14.2929C9.89464 14.4804 10 14.7348 10 15C10 15.2652 9.89464 15.5196 9.70711 15.7071C9.51957 15.8946 9.26522 16 9 16Z" fill="#4F5465"/>
<path d="M16 12H13C12.7348 12 12.4804 11.8946 12.2929 11.7071C12.1054 11.5196 12 11.2652 12 11C12 10.7348 12.1054 10.4804 12.2929 10.2929C12.4804 10.1054 12.7348 10 13 10H16C16.2652 10 16.5196 10.1054 16.7071 10.2929C16.8946 10.4804 17 10.7348 17 11C17 11.2652 16.8946 11.5196 16.7071 11.7071C16.5196 11.8946 16.2652 12 16 12Z" fill="#C9CEE1"/>
<path d="M9 12H6C5.73478 12 5.48043 11.8946 5.29289 11.7071C5.10536 11.5196 5 11.2652 5 11C5 10.7348 5.10536 10.4804 5.29289 10.2929C5.48043 10.1054 5.73478 10 6 10H9C9.26522 10 9.51957 10.1054 9.70711 10.2929C9.89464 10.4804 10 10.7348 10 11C10 11.2652 9.89464 11.5196 9.70711 11.7071C9.51957 11.8946 9.26522 12 9 12Z" fill="#B5B9CA"/>
<path d="M16 8H13C12.7348 8 12.4804 7.89464 12.2929 7.70711C12.1054 7.51957 12 7.26522 12 7C12 6.73478 12.1054 6.48043 12.2929 6.29289C12.4804 6.10536 12.7348 6 13 6H16C16.2652 6 16.5196 6.10536 16.7071 6.29289C16.8946 6.48043 17 6.73478 17 7C17 7.26522 16.8946 7.51957 16.7071 7.70711C16.5196 7.89464 16.2652 8 16 8Z" fill="#7E849A"/>
<path d="M9 8H6C5.73478 8 5.48043 7.89464 5.29289 7.70711C5.10536 7.51957 5 7.26522 5 7C5 6.73478 5.10536 6.48043 5.29289 6.29289C5.48043 6.10536 5.73478 6 6 6H9C9.26522 6 9.51957 6.10536 9.70711 6.29289C9.89464 6.48043 10 6.73478 10 7C10 7.26522 9.89464 7.51957 9.70711 7.70711C9.51957 7.89464 9.26522 8 9 8Z" fill="#8E94A9"/>
<path d="M0 22H25C26.1046 22 27 22.8954 27 24V34C27 35.1046 26.1046 36 25 36H0V22Z" fill="#8E94A9"/>
<path d="M8.435 25.7H9.605C9.767 25.7 9.776 25.853 9.695 25.934L6.932 28.733L9.821 31.766C9.902 31.847 9.893 32 9.731 32H8.498C8.354 32 8.282 31.964 8.21 31.874L5.987 29.543L3.755 31.874C3.674 31.964 3.611 32 3.458 32H2.288C2.135 32 2.126 31.847 2.207 31.766L5.168 28.688L2.495 25.934C2.423 25.853 2.423 25.7 2.585 25.7H3.818C3.962 25.7 4.034 25.745 4.106 25.826L6.068 27.914L8.147 25.826C8.219 25.745 8.291 25.7 8.435 25.7ZM10.7986 25.7H11.7706C11.9056 25.7 11.9686 25.763 11.9686 25.898V29.489C11.9686 30.443 12.2386 30.722 13.1656 30.722H16.8106C16.9456 30.722 17.0086 30.785 17.0086 30.92V31.802C17.0086 31.937 16.9456 32 16.8106 32H13.1116C11.2936 32 10.5916 31.352 10.5916 29.624V25.898C10.5916 25.763 10.6636 25.7 10.7986 25.7ZM19.3017 25.7H24.0717C24.2067 25.7 24.2697 25.763 24.2697 25.898V26.753C24.2697 26.888 24.2067 26.951 24.0717 26.951H19.5627C19.2207 26.951 19.0857 27.14 19.0857 27.455V27.761C19.0857 28.094 19.2387 28.265 19.5537 28.265H22.9287C23.9637 28.265 24.5037 28.823 24.5037 29.813V30.533C24.5037 31.406 23.9997 32 22.9107 32H17.9247C17.7897 32 17.7177 31.937 17.7177 31.802V30.947C17.7177 30.812 17.7897 30.749 17.9247 30.749H22.6497C22.9917 30.749 23.1267 30.56 23.1267 30.245V29.876C23.1267 29.543 22.9737 29.372 22.6587 29.372H19.2837C18.2487 29.372 17.7087 28.814 17.7087 27.824V27.167C17.7087 26.294 18.2127 25.7 19.3017 25.7Z" fill="#F9F7F7"/>
</svg>
