<svg width="32" height="42" viewBox="0 0 32 42" fill="none" xmlns="http://www.w3.org/2000/svg">
<path d="M1.5 41H30.5C30.775 41 31 40.775 31 40.5V11H22.5C21.673 11 21 10.327 21 9.5V1H1.5C1.225 1 1 1.225 1 1.5V40.5C1 40.775 1.225 41 1.5 41Z" fill="white"/>
<path d="M30.293 9.99613L22 1.70312V9.49613C22 9.77112 22.225 9.99613 22.5 9.99613H30.293Z" fill="white"/>
<path opacity="0.67" fill-rule="evenodd" clip-rule="evenodd" d="M31.56 9.854L22.146 0.439C21.8642 0.158905 21.4833 0.00117333 21.086 0H1.5C0.673 0 0 0.673 0 1.5V40.5C0 41.327 0.673 42 1.5 42H30.5C31.327 42 32 41.327 32 40.5V10.914C32 10.514 31.844 10.137 31.56 9.854ZM22 1.707L30.293 10H22.5C22.3675 9.99974 22.2405 9.94697 22.1467 9.85326C22.053 9.75955 22.0003 9.63253 22 9.5V1.707ZM1.5 41H30.5C30.775 41 31 40.775 31 40.5V11H22.5C21.673 11 21 10.327 21 9.5V1H1.5C1.225 1 1 1.225 1 1.5V40.5C1 40.776 1.224 41 1.5 41Z" fill="#605E5C"/>
<path d="M0 22H25C26.1046 22 27 22.8954 27 24V34C27 35.1046 26.1046 36 25 36H0V22Z" fill="#8E94A9"/>
<path d="M7.274 25.7H8.246C8.381 25.7 8.444 25.763 8.444 25.898V29.624C8.444 31.352 7.751 32 5.924 32H2.414C2.279 32 2.207 31.937 2.207 31.802V30.92C2.207 30.785 2.279 30.722 2.414 30.722H5.879C6.806 30.722 7.067 30.443 7.067 29.489V25.898C7.067 25.763 7.139 25.7 7.274 25.7ZM9.89525 25.7H14.7283C16.1053 25.7 16.6633 26.339 16.6633 27.554V28.22C16.6633 29.435 16.1053 30.074 14.7283 30.074H11.0023V31.802C11.0023 31.937 10.9393 32 10.8043 32H9.83225C9.69725 32 9.62525 31.937 9.62525 31.802V25.97C9.62525 25.79 9.71525 25.7 9.89525 25.7ZM11.0023 27.05V28.886H14.4493C15.0613 28.886 15.2863 28.625 15.2863 28.085V27.743C15.2863 27.203 15.0613 26.942 14.4493 26.942H11.1193C11.0383 26.942 11.0023 26.969 11.0023 27.05ZM20.001 25.7H24.564C24.699 25.7 24.762 25.763 24.762 25.898V26.78C24.762 26.915 24.699 26.987 24.564 26.987H20.055C19.128 26.987 18.858 27.257 18.858 28.211V29.507C18.858 30.461 19.128 30.74 20.055 30.74H23.025C23.34 30.74 23.475 30.596 23.475 30.191V29.462C23.475 29.381 23.448 29.345 23.367 29.345H20.73C20.604 29.345 20.532 29.273 20.532 29.138V28.463C20.532 28.328 20.604 28.256 20.73 28.256H24.483C24.663 28.256 24.753 28.346 24.753 28.526V30.623C24.753 31.631 24.357 32 23.637 32H20.001C18.183 32 17.481 31.352 17.481 29.624V28.076C17.481 26.348 18.183 25.7 20.001 25.7Z" fill="#F9F7F7"/>
<path d="M12.5221 12.1607L11.8444 12.8624C11.5873 13.1131 11.1899 13.088 10.9561 12.7873L8.78236 9.65444C8.52526 9.30363 8.03437 9.32863 7.82405 9.70458L4.08439 16.0455C3.8506 16.4716 4.13114 16.998 4.57526 16.998H15.4206C15.8881 16.998 16.1686 16.4215 15.8881 15.9954L13.4105 12.236C13.2001 11.9353 12.7794 11.8851 12.5222 12.1608L12.5221 12.1607Z" fill="#4F5465"/>
<path d="M15.4682 8.62905C15.4682 9.52876 14.788 10.2581 13.949 10.2581C13.1099 10.2581 12.4297 9.52876 12.4297 8.62905C12.4297 7.72934 13.1099 7 13.949 7C14.788 7 15.4682 7.72934 15.4682 8.62905Z" fill="#4F5465"/>
</svg>
