<svg width="32" height="25" viewBox="0 0 32 25" fill="none" xmlns="http://www.w3.org/2000/svg">
<path d="M16 3.55556L13.4862 1.04178C12.8196 0.374936 11.9154 0.000201377 10.9724 0H1.77778C1.30628 0 0.854097 0.187301 0.520699 0.520699C0.187301 0.854097 0 1.30628 0 1.77778V23.1111C0 23.5826 0.187301 24.0348 0.520699 24.3682C0.854097 24.7016 1.30628 24.8889 1.77778 24.8889H30.2222C30.6937 24.8889 31.1459 24.7016 31.4793 24.3682C31.8127 24.0348 32 23.5826 32 23.1111V5.33333C32 4.86184 31.8127 4.40965 31.4793 4.07625C31.1459 3.74286 30.6937 3.55556 30.2222 3.55556H16Z" fill="#4F5465"/>
<path d="M16 3.55469L13.4862 6.06847C12.8196 6.73531 11.9154 7.11004 10.9724 7.11024H0V23.1102C0 23.5817 0.187301 24.0339 0.520699 24.3673C0.854097 24.7007 1.30628 24.888 1.77778 24.888H30.2222C30.6937 24.888 31.1459 24.7007 31.4793 24.3673C31.8127 24.0339 32 23.5817 32 23.1102V5.33247C32 4.86097 31.8127 4.40878 31.4793 4.07539C31.1459 3.74199 30.6937 3.55469 30.2222 3.55469H16Z" fill="#8E94A9"/>
<path d="M16 3.55469L13.4862 6.06847C12.8196 6.73531 11.9154 7.11004 10.9724 7.11024H0V23.1102C0 23.5817 0.187301 24.0339 0.520699 24.3673C0.854097 24.7007 1.30628 24.888 1.77778 24.888H30.2222C30.6937 24.888 31.1459 24.7007 31.4793 24.3673C31.8127 24.0339 32 23.5817 32 23.1102V5.33247C32 4.86097 31.8127 4.40878 31.4793 4.07539C31.1459 3.74199 30.6937 3.55469 30.2222 3.55469H16Z" fill="url(#paint0_linear_5655_753)"/>
<path d="M1.76884 23.9962C1.10573 23.9962 0.506618 23.7437 0.0390625 23.3438C0.147507 24.2184 0.887063 24.878 1.76884 24.8851H30.2133C31.1111 24.8851 31.8222 24.2095 31.9431 23.3438C31.4773 23.7455 30.8764 23.9962 30.2133 23.9962H1.76884Z" fill="#484848"/>
<path opacity="0.4" d="M13.9307 6.95735L17.3333 3.55469H16L13.4862 6.06847C12.8196 6.73531 11.9154 7.11004 10.9724 7.11024H0V7.99913H11.4169C12.3598 7.99893 13.264 7.6242 13.9307 6.95735Z" fill="#C9CEE1"/>
<path d="M21.2144 17.9609C20.4023 19.3789 19.0285 20.4358 17.3984 20.8262C17.7951 20.4988 18.1497 20.0378 18.4526 19.4558C18.6863 19.0074 18.8807 18.5038 19.0325 17.961L21.2144 17.9609Z" fill="#4F5465"/>
<path d="M14.5973 20.8262C12.9673 20.4359 11.5935 19.3789 10.7812 17.9609H12.9632C13.115 18.5038 13.3094 19.0067 13.5431 19.4558C13.846 20.0378 14.2006 20.4988 14.5973 20.8262V20.8262Z" fill="#4F5465"/>
<path d="M12.8709 17.5811H10.5862C10.235 16.8501 10.0273 16.0373 10 15.1797H12.5834C12.5959 16.0198 12.6946 16.8327 12.8709 17.5811H12.8709Z" fill="#4F5465"/>
<path d="M22.0037 15.1797C21.9765 16.0373 21.7694 16.8494 21.4176 17.5811H19.1328C19.3091 16.8326 19.4077 16.0199 19.4203 15.1797H22.0037Z" fill="#4F5465"/>
<path d="M22.0037 14.7999H19.4203C19.4077 13.9597 19.3091 13.1476 19.1328 12.3984H21.4176C21.7687 13.1294 21.9765 13.9422 22.0037 14.7999H22.0037Z" fill="#4F5465"/>
<path d="M12.8709 12.3984C12.6946 13.1469 12.5959 13.9597 12.5834 14.7999H10C10.0273 13.9423 10.2343 13.1301 10.5862 12.3984H12.8709Z" fill="#4F5465"/>
<path d="M14.5973 9.15628C14.2006 9.48366 13.846 9.94464 13.5431 10.5266C13.3094 10.975 13.115 11.4787 12.9632 12.0215H10.7812C11.5927 10.6036 12.9672 9.54664 14.5973 9.15625V9.15628Z" fill="#4F5465"/>
<path d="M21.2144 12.0215H19.0325C18.8807 11.4786 18.6863 10.9757 18.4526 10.5266C18.149 9.94461 17.7944 9.48362 17.3984 9.15625C19.0283 9.54658 20.4028 10.6036 21.2144 12.0215V12.0215Z" fill="#4F5465"/>
<path d="M18.6309 17.9609C18.491 18.438 18.3168 18.8815 18.1098 19.2788C17.5809 20.2931 16.9045 20.8884 16.1875 20.9787V17.961L18.6309 17.9609Z" fill="#4F5465"/>
<path d="M15.8106 17.961V20.9787C15.0936 20.8885 14.4171 20.2932 13.8883 19.2788C13.6813 18.8815 13.5064 18.4387 13.3672 17.9609L15.8106 17.961Z" fill="#4F5465"/>
<path d="M15.8138 15.1797V17.5811H13.2668C13.0842 16.8375 12.982 16.024 12.9688 15.1797H15.8138Z" fill="#4F5465"/>
<path d="M19.0326 15.1797C19.0193 16.024 18.9172 16.8375 18.7346 17.5811H16.1875V15.1797H19.0326Z" fill="#4F5465"/>
<path d="M19.0325 14.7999H16.1875V12.3984H18.7346C18.9172 13.142 19.0193 13.9555 19.0326 14.7999H19.0325Z" fill="#4F5465"/>
<path d="M15.8137 12.3984V14.7999H12.9688C12.982 13.9556 13.0842 13.1421 13.2668 12.3984H15.8137Z" fill="#4F5465"/>
<path d="M15.8113 9.00003V12.0178H13.3672C13.5071 11.5407 13.6813 11.0972 13.8883 10.6999C14.4172 9.68559 15.0936 9.09029 15.8113 9L15.8113 9.00003Z" fill="#4F5465"/>
<path d="M18.6316 12.0178H16.1875V9C16.9045 9.09024 17.581 9.68554 18.1098 10.6999C18.3168 11.0972 18.4917 11.54 18.6316 12.0178L18.6316 12.0178Z" fill="#4F5465"/>
<defs>
<linearGradient id="paint0_linear_5655_753" x1="0" y1="3.55469" x2="0" y2="24.888" gradientUnits="userSpaceOnUse">
<stop stop-color="white" stop-opacity="0.01"/>
<stop offset="0.999" stop-color="#8E94A9"/>
</linearGradient>
</defs>
</svg>
