<svg width="32" height="25" viewBox="0 0 32 25" fill="none" xmlns="http://www.w3.org/2000/svg">
<path d="M16 3.55556L13.4862 1.04178C12.8196 0.374936 11.9154 0.000201377 10.9724 0H1.77778C1.30628 0 0.854097 0.187301 0.520699 0.520699C0.187301 0.854097 0 1.30628 0 1.77778V23.1111C0 23.5826 0.187301 24.0348 0.520699 24.3682C0.854097 24.7016 1.30628 24.8889 1.77778 24.8889H30.2222C30.6937 24.8889 31.1459 24.7016 31.4793 24.3682C31.8127 24.0348 32 23.5826 32 23.1111V5.33333C32 4.86184 31.8127 4.40965 31.4793 4.07625C31.1459 3.74286 30.6937 3.55556 30.2222 3.55556H16Z" fill="#4F5465"/>
<path d="M16 3.55469L13.4862 6.06847C12.8196 6.73531 11.9154 7.11004 10.9724 7.11024H0V23.1102C0 23.5817 0.187301 24.0339 0.520699 24.3673C0.854097 24.7007 1.30628 24.888 1.77778 24.888H30.2222C30.6937 24.888 31.1459 24.7007 31.4793 24.3673C31.8127 24.0339 32 23.5817 32 23.1102V5.33247C32 4.86097 31.8127 4.40878 31.4793 4.07539C31.1459 3.74199 30.6937 3.55469 30.2222 3.55469H16Z" fill="#8E94A9"/>
<path d="M16 3.55469L13.4862 6.06847C12.8196 6.73531 11.9154 7.11004 10.9724 7.11024H0V23.1102C0 23.5817 0.187301 24.0339 0.520699 24.3673C0.854097 24.7007 1.30628 24.888 1.77778 24.888H30.2222C30.6937 24.888 31.1459 24.7007 31.4793 24.3673C31.8127 24.0339 32 23.5817 32 23.1102V5.33247C32 4.86097 31.8127 4.40878 31.4793 4.07539C31.1459 3.74199 30.6937 3.55469 30.2222 3.55469H16Z" fill="url(#paint0_linear_5749_704)"/>
<path d="M1.76884 23.9962C1.10573 23.9962 0.506618 23.7437 0.0390625 23.3438C0.147507 24.2184 0.887063 24.878 1.76884 24.8851H30.2133C31.1111 24.8851 31.8222 24.2095 31.9431 23.3438C31.4773 23.7455 30.8764 23.9962 30.2133 23.9962H1.76884Z" fill="#484848"/>
<path opacity="0.4" d="M13.9307 6.95735L17.3333 3.55469H16L13.4862 6.06847C12.8196 6.73531 11.9154 7.11004 10.9724 7.11024H0V7.99913H11.4169C12.3598 7.99893 13.264 7.6242 13.9307 6.95735Z" fill="#C9CEE1"/>
<defs>
<linearGradient id="paint0_linear_5749_704" x1="0" y1="3.55469" x2="0" y2="24.888" gradientUnits="userSpaceOnUse">
<stop stop-color="white" stop-opacity="0.01"/>
<stop offset="0.999" stop-color="#8E94A9"/>
</linearGradient>
</defs>
</svg>
