<svg width="512" height="330" viewBox="0 0 512 330" fill="none" xmlns="http://www.w3.org/2000/svg">
<path d="M219.621 171.886L41.7036 14.6286C55.9665 5.48571 73.155 0 91.4408 0H420.584C438.869 0 456.058 5.48571 470.321 14.6286L292.403 171.886C271.557 190.171 240.472 190.171 219.621 171.886ZM496.462 40.2286L316.531 199.319C299.342 214.496 277.582 222.176 256.002 222.176C234.423 222.176 212.665 214.496 195.474 199.319L15.5429 40.2286C5.85143 54.8571 0 72.4114 0 91.4286V237.714C0 288.183 40.96 329.143 91.4286 329.143H420.571C471.04 329.143 512 288.183 512 237.714V91.4286C512 72.4114 506.149 54.8571 496.457 40.2286H496.462Z" fill="black" fill-opacity="0.6"/>
</svg>
