<svg width="32" height="42" viewBox="0 0 32 42" fill="none" xmlns="http://www.w3.org/2000/svg">
<path d="M1.5 41H30.5C30.775 41 31 40.775 31 40.5V11H22.5C21.673 11 21 10.327 21 9.5V1H1.5C1.225 1 1 1.225 1 1.5V40.5C1 40.775 1.225 41 1.5 41Z" fill="white"/>
<path d="M30.293 9.99613L22 1.70312V9.49613C22 9.77112 22.225 9.99613 22.5 9.99613H30.293Z" fill="white"/>
<path opacity="0.67" fill-rule="evenodd" clip-rule="evenodd" d="M31.56 9.854L22.146 0.439C21.8642 0.158905 21.4833 0.00117333 21.086 0H1.5C0.673 0 0 0.673 0 1.5V40.5C0 41.327 0.673 42 1.5 42H30.5C31.327 42 32 41.327 32 40.5V10.914C32 10.514 31.844 10.137 31.56 9.854ZM22 1.707L30.293 10H22.5C22.3675 9.99974 22.2405 9.94697 22.1467 9.85326C22.053 9.75955 22.0003 9.63253 22 9.5V1.707ZM1.5 41H30.5C30.775 41 31 40.775 31 40.5V11H22.5C21.673 11 21 10.327 21 9.5V1H1.5C1.225 1 1 1.225 1 1.5V40.5C1 40.776 1.224 41 1.5 41Z" fill="#605E5C"/>
<path d="M0 22H25C26.1046 22 27 22.8954 27 24V34C27 35.1046 26.1046 36 25 36H0V22Z" fill="#8E94A9"/>
<path fill-rule="evenodd" clip-rule="evenodd" d="M17.0394 7H4.42063C4.30907 7 4.20208 6.94732 4.1232 6.85355C4.04432 6.75979 4 6.63261 4 6.5C4 6.36739 4.04432 6.24021 4.1232 6.14645C4.20208 6.05268 4.30907 6 4.42063 6H17.0394C17.1509 6 17.2579 6.05268 17.3368 6.14645C17.4157 6.24021 17.46 6.36739 17.46 6.5C17.46 6.63261 17.4157 6.75979 17.3368 6.85355C17.2579 6.94732 17.1509 7 17.0394 7ZM17.0394 9H4.42063C4.30907 9 4.20208 8.94732 4.1232 8.85355C4.04432 8.75979 4 8.63261 4 8.5C4 8.36739 4.04432 8.24021 4.1232 8.14645C4.20208 8.05268 4.30907 8 4.42063 8H17.0394C17.1509 8 17.2579 8.05268 17.3368 8.14645C17.4157 8.24021 17.46 8.36739 17.46 8.5C17.46 8.63261 17.4157 8.75979 17.3368 8.85355C17.2579 8.94732 17.1509 9 17.0394 9ZM4.42063 11H17.0394C17.1509 11 17.2579 10.9473 17.3368 10.8536C17.4157 10.7598 17.46 10.6326 17.46 10.5C17.46 10.3674 17.4157 10.2402 17.3368 10.1464C17.2579 10.0527 17.1509 10 17.0394 10H4.42063C4.30907 10 4.20208 10.0527 4.1232 10.1464C4.04432 10.2402 4 10.3674 4 10.5C4 10.6326 4.04432 10.7598 4.1232 10.8536C4.20208 10.9473 4.30907 11 4.42063 11Z" fill="#C8C6C4"/>
<path fill-rule="evenodd" clip-rule="evenodd" d="M12.25 14H19.75C20.413 14 21.0489 14.1054 21.5178 14.2929C21.9866 14.4804 22.25 14.7348 22.25 15V17C22.25 17.2652 21.9866 17.5196 21.5178 17.7071C21.0489 17.8946 20.413 18 19.75 18H12.25C11.587 18 10.9511 17.8946 10.4822 17.7071C10.0134 17.5196 9.75 17.2652 9.75 17V15C9.75 14.7348 10.0134 14.4804 10.4822 14.2929C10.9511 14.1054 11.587 14 12.25 14ZM21 15C21 14.7245 20.4387 14.5 19.75 14.5H12.25C11.5612 14.5 11 14.7245 11 15V17C11 17.2755 11.5612 17.5 12.25 17.5H19.75C20.4387 17.5 21 17.2755 21 17V15ZM2.25 17.5H8.1875C8.27038 17.5 8.34987 17.4868 8.40847 17.4634C8.46708 17.4399 8.5 17.4082 8.5 17.375V14.625C8.5 14.5918 8.46708 14.5601 8.40847 14.5366C8.34987 14.5132 8.27038 14.5 8.1875 14.5H2.25C1.91848 14.5 1.60054 14.5527 1.36612 14.6464C1.1317 14.7402 1 14.8674 1 15V17C1 17.1326 1.1317 17.2598 1.36612 17.3536C1.60054 17.4473 1.91848 17.5 2.25 17.5ZM23.8125 14.5H29.75C30.0815 14.5 30.3995 14.5527 30.6339 14.6464C30.8683 14.7402 31 14.8674 31 15V17C31 17.1326 30.8683 17.2598 30.6339 17.3536C30.3995 17.4473 30.0815 17.5 29.75 17.5H23.8125C23.7296 17.5 23.6501 17.4868 23.5915 17.4634C23.5329 17.4399 23.5 17.4082 23.5 17.375V14.625C23.5 14.5918 23.5329 14.5601 23.5915 14.5366C23.6501 14.5132 23.7296 14.5 23.8125 14.5Z" fill="#4F5465"/>
<path d="M2.864 25.7H7.697C9.074 25.7 9.632 26.339 9.632 27.554V28.22C9.632 29.435 9.074 30.074 7.697 30.074H3.971V31.802C3.971 31.937 3.908 32 3.773 32H2.801C2.666 32 2.594 31.937 2.594 31.802V25.97C2.594 25.79 2.684 25.7 2.864 25.7ZM3.971 27.05V28.886H7.418C8.03 28.886 8.255 28.625 8.255 28.085V27.743C8.255 27.203 8.03 26.942 7.418 26.942H4.088C4.007 26.942 3.971 26.969 3.971 27.05ZM10.7917 25.7H15.0037C16.9567 25.7 17.7577 26.483 17.7577 28.238V29.462C17.7577 31.217 16.9567 32 15.0037 32H10.7917C10.6117 32 10.5217 31.91 10.5217 31.73V25.97C10.5217 25.79 10.6117 25.7 10.7917 25.7ZM11.8987 27.077V30.632C11.8987 30.713 11.9347 30.749 12.0157 30.749H14.9677C16.0297 30.749 16.3807 30.407 16.3807 29.345V28.355C16.3807 27.293 16.0297 26.951 14.9677 26.951H12.0157C11.9347 26.951 11.8987 26.987 11.8987 27.077ZM21.3281 25.7H25.2881C25.4231 25.7 25.4951 25.763 25.4951 25.898V26.753C25.4951 26.888 25.4231 26.951 25.2881 26.951H21.3821C20.4551 26.951 20.1851 27.23 20.1851 28.175V28.355H25.2431C25.3781 28.355 25.4411 28.418 25.4411 28.553V29.264C25.4411 29.399 25.3781 29.462 25.2431 29.462H20.1851V31.802C20.1851 31.937 20.1221 32 19.9871 32H19.0151C18.8801 32 18.8081 31.937 18.8081 31.802V28.076C18.8081 26.348 19.5101 25.7 21.3281 25.7Z" fill="#F9F7F7"/>
</svg>
