<svg width="32" height="42" viewBox="0 0 32 42" fill="none" xmlns="http://www.w3.org/2000/svg">
<path d="M1.5 41H30.5C30.775 41 31 40.775 31 40.5V11H22.5C21.673 11 21 10.327 21 9.5V1H1.5C1.225 1 1 1.225 1 1.5V40.5C1 40.775 1.225 41 1.5 41Z" fill="white"/>
<path d="M30.293 9.99613L22 1.70312V9.49613C22 9.77112 22.225 9.99613 22.5 9.99613H30.293Z" fill="white"/>
<path opacity="0.67" fill-rule="evenodd" clip-rule="evenodd" d="M31.56 9.854L22.146 0.439C21.8642 0.158905 21.4833 0.00117333 21.086 0H1.5C0.673 0 0 0.673 0 1.5V40.5C0 41.327 0.673 42 1.5 42H30.5C31.327 42 32 41.327 32 40.5V10.914C32 10.514 31.844 10.137 31.56 9.854ZM22 1.707L30.293 10H22.5C22.3675 9.99974 22.2405 9.94697 22.1467 9.85326C22.053 9.75955 22.0003 9.63253 22 9.5V1.707ZM1.5 41H30.5C30.775 41 31 40.775 31 40.5V11H22.5C21.673 11 21 10.327 21 9.5V1H1.5C1.225 1 1 1.225 1 1.5V40.5C1 40.776 1.224 41 1.5 41Z" fill="#605E5C"/>
<path d="M0 22H26C27.1046 22 28 22.8954 28 24V34C28 35.1046 27.1046 36 26 36H0V22Z" fill="#8E94A9"/>
<path d="M1.864 25.7H6.697C8.074 25.7 8.632 26.339 8.632 27.554V28.22C8.632 29.435 8.074 30.074 6.697 30.074H2.971V31.802C2.971 31.937 2.908 32 2.773 32H1.801C1.666 32 1.594 31.937 1.594 31.802V25.97C1.594 25.79 1.684 25.7 1.864 25.7ZM2.971 27.05V28.886H6.418C7.03 28.886 7.255 28.625 7.255 28.085V27.743C7.255 27.203 7.03 26.942 6.418 26.942H3.088C3.007 26.942 2.971 26.969 2.971 27.05ZM10.3317 25.7H11.1237C11.6997 25.7 11.8257 25.772 12.1677 26.231L15.5157 30.623C15.5427 30.668 15.5787 30.686 15.6327 30.686H15.7137C15.7587 30.686 15.7857 30.659 15.7857 30.596V25.898C15.7857 25.763 15.8487 25.7 15.9837 25.7H16.9287C17.0637 25.7 17.1267 25.763 17.1267 25.898V31.064C17.1267 31.793 16.8657 32 16.3167 32H15.5427C14.9937 32 14.8587 31.946 14.4987 31.469L11.1417 27.077C11.1057 27.032 11.0787 27.014 11.0247 27.014H10.9437C10.8897 27.014 10.8717 27.041 10.8717 27.104V31.802C10.8717 31.937 10.8087 32 10.6737 32H9.72873C9.59373 32 9.52173 31.937 9.52173 31.802V26.636C9.52173 25.907 9.78273 25.7 10.3317 25.7ZM20.7676 25.7H25.3306C25.4656 25.7 25.5286 25.763 25.5286 25.898V26.78C25.5286 26.915 25.4656 26.987 25.3306 26.987H20.8216C19.8946 26.987 19.6246 27.257 19.6246 28.211V29.507C19.6246 30.461 19.8946 30.74 20.8216 30.74H23.7916C24.1066 30.74 24.2416 30.596 24.2416 30.191V29.462C24.2416 29.381 24.2146 29.345 24.1336 29.345H21.4966C21.3706 29.345 21.2986 29.273 21.2986 29.138V28.463C21.2986 28.328 21.3706 28.256 21.4966 28.256H25.2496C25.4296 28.256 25.5196 28.346 25.5196 28.526V30.623C25.5196 31.631 25.1236 32 24.4036 32H20.7676C18.9496 32 18.2476 31.352 18.2476 29.624V28.076C18.2476 26.348 18.9496 25.7 20.7676 25.7Z" fill="#F9F7F7"/>
<path d="M11.9567 11.2358H11.6067V11.5858V13.5778V13.9278H11.9567H14.5652C14.6248 13.9278 14.6438 13.9452 14.644 13.9454C14.6446 13.946 14.6452 13.9465 14.646 13.9485C14.647 13.9509 14.65 13.9592 14.65 13.9762V16.7652C14.65 16.7822 14.647 16.7905 14.646 16.7928C14.6452 16.7949 14.6446 16.7954 14.644 16.796C14.6438 16.7962 14.6248 16.8136 14.5652 16.8136H11.5217C11.4621 16.8136 11.4431 16.7962 11.4429 16.796C11.4423 16.7954 11.4417 16.7949 11.4409 16.7928C11.4399 16.7905 11.4369 16.7822 11.4369 16.7652V14.3748V14.0248H11.0869H8.91309H8.56309V14.3748V16.7652C8.56309 16.7822 8.5601 16.7905 8.55912 16.7928C8.55825 16.7949 8.55774 16.7954 8.55707 16.796C8.55687 16.7962 8.53791 16.8136 8.47833 16.8136H5.43476C5.37518 16.8136 5.35622 16.7962 5.35602 16.796C5.35535 16.7954 5.35484 16.7949 5.35397 16.7928C5.353 16.7905 5.35 16.7822 5.35 16.7652V13.9762C5.35 13.9592 5.353 13.9509 5.35397 13.9485C5.35484 13.9465 5.35535 13.946 5.35602 13.9454C5.35622 13.9452 5.37518 13.9278 5.43476 13.9278H8.04334H8.39334V13.5778V11.5858V11.2358H8.04334H5.43476C5.37518 11.2358 5.35622 11.2184 5.35602 11.2182C5.35535 11.2176 5.35484 11.2171 5.35397 11.215C5.353 11.2127 5.35 11.2044 5.35 11.1874V8.3984C5.35 8.3814 5.353 8.37309 5.35397 8.37076C5.35484 8.36869 5.35535 8.36822 5.35602 8.3676L5.35602 8.3676C5.35625 8.36739 5.37523 8.35 5.43476 8.35H8.47833C8.53791 8.35 8.55687 8.36742 8.55707 8.3676C8.55774 8.36822 8.55825 8.36869 8.55912 8.37076C8.5601 8.37309 8.56309 8.3814 8.56309 8.3984V10.7888V11.1388H8.91309H11.0869H11.4369V10.7888V8.3984C11.4369 8.3814 11.4399 8.37309 11.4409 8.37076C11.4417 8.36869 11.4423 8.36822 11.4429 8.3676C11.4431 8.36742 11.4621 8.35 11.5217 8.35H14.5652C14.6248 8.35 14.6438 8.36742 14.644 8.3676C14.6446 8.36822 14.6452 8.36869 14.646 8.37076C14.647 8.37309 14.65 8.3814 14.65 8.3984V11.1874C14.65 11.2044 14.647 11.2127 14.646 11.215C14.6452 11.2171 14.6446 11.2176 14.644 11.2182C14.6438 11.2184 14.6248 11.2358 14.5652 11.2358H11.9567Z" stroke="#4F5465" stroke-width="0.7"/>
</svg>
