<svg width="32" height="42" viewBox="0 0 32 42" fill="none" xmlns="http://www.w3.org/2000/svg">
<path d="M1.5 41H30.5C30.775 41 31 40.775 31 40.5V11H22.5C21.673 11 21 10.327 21 9.5V1H1.5C1.225 1 1 1.225 1 1.5V40.5C1 40.775 1.225 41 1.5 41Z" fill="white"/>
<path d="M30.293 9.99613L22 1.70312V9.49613C22 9.77112 22.225 9.99613 22.5 9.99613H30.293Z" fill="white"/>
<path opacity="0.67" fill-rule="evenodd" clip-rule="evenodd" d="M31.56 9.854L22.146 0.439C21.8642 0.158905 21.4833 0.00117333 21.086 0H1.5C0.673 0 0 0.673 0 1.5V40.5C0 41.327 0.673 42 1.5 42H30.5C31.327 42 32 41.327 32 40.5V10.914C32 10.514 31.844 10.137 31.56 9.854ZM22 1.707L30.293 10H22.5C22.3675 9.99974 22.2405 9.94697 22.1467 9.85326C22.053 9.75955 22.0003 9.63253 22 9.5V1.707ZM1.5 41H30.5C30.775 41 31 40.775 31 40.5V11H22.5C21.673 11 21 10.327 21 9.5V1H1.5C1.225 1 1 1.225 1 1.5V40.5C1 40.776 1.224 41 1.5 41Z" fill="#605E5C"/>
<path d="M9.3353 11.3311L8.66824 10.6641H6.66706L6 11.3311V14.7892C6.80569 15.5669 7.88197 16.0012 9.00177 16.0005C10.1517 16.0005 11.2546 15.5437 12.0677 14.7306C12.8808 13.9175 13.3377 12.8146 13.3377 11.6647V11.3311H9.3353Z" fill="#4F5465"/>
<path d="M9.00177 7.33594C7.8814 7.33501 6.80472 7.77047 6 8.54999V11.3383H9.3353V7.33594H9.00177Z" fill="#8E94A9"/>
<path d="M10.6641 6V10.0024H14.6664C14.6664 8.94087 14.2447 7.92285 13.4942 7.17226C12.7436 6.42168 11.7256 6 10.6641 6Z" fill="#C9CEE1"/>
<path d="M0 22H25C26.1046 22 27 22.8954 27 24V34C27 35.1046 26.1046 36 25 36H0V22Z" fill="#8E94A9"/>
<path d="M2.864 25.7H7.697C9.074 25.7 9.632 26.339 9.632 27.554V28.22C9.632 29.435 9.074 30.074 7.697 30.074H3.971V31.802C3.971 31.937 3.908 32 3.773 32H2.801C2.666 32 2.594 31.937 2.594 31.802V25.97C2.594 25.79 2.684 25.7 2.864 25.7ZM3.971 27.05V28.886H7.418C8.03 28.886 8.255 28.625 8.255 28.085V27.743C8.255 27.203 8.03 26.942 7.418 26.942H4.088C4.007 26.942 3.971 26.969 3.971 27.05ZM10.7917 25.7H15.6247C17.0017 25.7 17.5597 26.339 17.5597 27.554V28.22C17.5597 29.435 17.0017 30.074 15.6247 30.074H11.8987V31.802C11.8987 31.937 11.8357 32 11.7007 32H10.7287C10.5937 32 10.5217 31.937 10.5217 31.802V25.97C10.5217 25.79 10.6117 25.7 10.7917 25.7ZM11.8987 27.05V28.886H15.3457C15.9577 28.886 16.1827 28.625 16.1827 28.085V27.743C16.1827 27.203 15.9577 26.942 15.3457 26.942H12.0157C11.9347 26.942 11.8987 26.969 11.8987 27.05ZM18.2695 25.7H25.2985C25.4335 25.7 25.5055 25.763 25.5055 25.898V26.78C25.5055 26.915 25.4335 26.987 25.2985 26.987H22.4725V31.802C22.4725 31.937 22.4095 32 22.2745 32H21.2935C21.1585 32 21.0955 31.937 21.0955 31.802V26.987H18.2695C18.1345 26.987 18.0625 26.915 18.0625 26.78V25.898C18.0625 25.763 18.1345 25.7 18.2695 25.7Z" fill="#F9F7F7"/>
</svg>
