<svg width="27" height="27" viewBox="0 0 27 27" fill="none" xmlns="http://www.w3.org/2000/svg">
<path d="M18.4669 17.5381C18.4669 22.4126 14.5064 26.3731 9.63187 26.3731C4.75739 26.3731 0.796875 22.4126 0.796875 17.5381C0.796875 12.6636 4.75739 8.70312 9.63187 8.70312C14.5064 8.70312 18.4669 12.6636 18.4669 17.5381ZM12.8734 19.4879L10.5458 17.1604V13.8823C10.5458 13.3826 10.1315 12.9683 9.63187 12.9683C9.13224 12.9683 8.71791 13.3826 8.71791 13.8823V17.5381C8.71791 17.7818 8.8154 18.0134 8.98601 18.184L11.5817 20.7797C11.7645 20.9624 11.996 21.0478 12.2275 21.0478C12.4591 21.0478 12.6906 20.9624 12.8734 20.7797C13.2268 20.4263 13.2268 19.8413 12.8734 19.4879Z" fill="#40545E"/>
<path d="M17.6673 1V0.7H17.3673H9.02406C7.10624 0.7 5.55937 2.26749 5.55937 4.19767V8.12791V8.57109L5.97083 8.40643C7.10049 7.95438 8.31713 7.69535 9.59946 7.69535C14.9892 7.69535 19.3689 12.1162 19.3689 17.5698C19.3689 20.9674 17.6599 23.9805 15.058 25.752L14.2531 26.3H15.2268H22.8336C24.7514 26.3 26.2983 24.7325 26.2983 22.8023V9.72093V9.42093H25.9983H18.2304C17.9272 9.42093 17.6673 9.16284 17.6673 8.84884V1Z" fill="white" stroke="#40545E" stroke-width="0.6"/>
<path d="M19.3 8.3H25.7757C26.3103 8.3 26.578 7.65371 26.2 7.27574L19.7243 0.8C19.3463 0.422021 18.7 0.689721 18.7 1.22426V7.7C18.7 8.03137 18.9686 8.3 19.3 8.3Z" fill="white" stroke="#40545E" stroke-width="0.6"/>
</svg>
