<svg width="32" height="42" viewBox="0 0 32 42" fill="none" xmlns="http://www.w3.org/2000/svg">
<path d="M1.5 41H30.5C30.775 41 31 40.775 31 40.5V11H22.5C21.673 11 21 10.327 21 9.5V1H1.5C1.225 1 1 1.225 1 1.5V40.5C1 40.775 1.225 41 1.5 41Z" fill="white"/>
<path d="M30.293 9.99613L22 1.70312V9.49613C22 9.77112 22.225 9.99613 22.5 9.99613H30.293Z" fill="white"/>
<path opacity="0.67" fill-rule="evenodd" clip-rule="evenodd" d="M31.56 9.854L22.146 0.439C21.8642 0.158905 21.4833 0.00117333 21.086 0H1.5C0.673 0 0 0.673 0 1.5V40.5C0 41.327 0.673 42 1.5 42H30.5C31.327 42 32 41.327 32 40.5V10.914C32 10.514 31.844 10.137 31.56 9.854ZM22 1.707L30.293 10H22.5C22.3675 9.99974 22.2405 9.94697 22.1467 9.85326C22.053 9.75955 22.0003 9.63253 22 9.5V1.707ZM1.5 41H30.5C30.775 41 31 40.775 31 40.5V11H22.5C21.673 11 21 10.327 21 9.5V1H1.5C1.225 1 1 1.225 1 1.5V40.5C1 40.776 1.224 41 1.5 41Z" fill="#605E5C"/>
<path d="M0 22H25C26.1046 22 27 22.8954 27 24V34C27 35.1046 26.1046 36 25 36H0V22Z" fill="#8E94A9"/>
<path d="M10.5799 11.4476L14.8108 13.034C14.8423 13.0457 14.8691 13.0672 14.8875 13.0954C14.9058 13.1235 14.9147 13.1568 14.9128 13.1903C14.9108 13.2239 14.8982 13.2559 14.8768 13.2817C14.8553 13.3076 14.8261 13.3259 14.7935 13.334L12.7694 13.8394L12.2635 15.8635C12.2554 15.8961 12.2372 15.9253 12.2113 15.9467C12.1855 15.9682 12.1534 15.9808 12.1199 15.9827C12.0863 15.9847 12.0531 15.9758 12.0249 15.9575C11.9968 15.9391 11.9753 15.9122 11.9635 15.8808L10.3772 11.6499C10.3666 11.6216 10.3644 11.5908 10.3708 11.5613C10.3772 11.5318 10.392 11.5048 10.4134 11.4834C10.4348 11.4621 10.4618 11.4474 10.4914 11.441C10.5209 11.4347 10.5516 11.4369 10.5799 11.4476Z" fill="#4F5465"/>
<path d="M5.13281 13.951C5.68599 10.3874 8.86327 7.57599 12.8601 7.13281" stroke="#C8C6C4" stroke-linecap="round"/>
<path d="M5.59091 15.5455H4.68182V16H5.59091V15.5455ZM4.68182 15.5455C4.62154 15.5455 4.56373 15.5215 4.52111 15.4789C4.47849 15.4363 4.45455 15.3785 4.45455 15.3182H4C4 15.499 4.07183 15.6724 4.1997 15.8003C4.32757 15.9282 4.50099 16 4.68182 16V15.5455ZM4.45455 15.3182V14.4091H4V15.3182H4.45455ZM4.45455 14.4091C4.45455 14.3488 4.47849 14.291 4.52111 14.2484C4.56373 14.2058 4.62154 14.1818 4.68182 14.1818V13.7273C4.50099 13.7273 4.32757 13.7991 4.1997 13.927C4.07183 14.0548 4 14.2283 4 14.4091H4.45455ZM4.68182 14.1818H5.59091V13.7273H4.68182V14.1818ZM5.59091 14.1818C5.65119 14.1818 5.70899 14.2058 5.75162 14.2484C5.79424 14.291 5.81818 14.3488 5.81818 14.4091H6.27273C6.27273 14.2283 6.20089 14.0548 6.07303 13.927C5.94516 13.7991 5.77174 13.7273 5.59091 13.7273V14.1818ZM5.81818 14.4091V15.3182H6.27273V14.4091H5.81818ZM5.81818 15.3182C5.81818 15.3785 5.79424 15.4363 5.75162 15.4789C5.70899 15.5215 5.65119 15.5455 5.59091 15.5455V16C5.77174 16 5.94516 15.9282 6.07303 15.8003C6.20089 15.6724 6.27273 15.499 6.27273 15.3182H5.81818ZM14.2273 7.81818H13.3182V8.27273H14.2273V7.81818ZM13.3182 7.81818C13.2579 7.81818 13.2001 7.79424 13.1575 7.75162C13.1149 7.70899 13.0909 7.65119 13.0909 7.59091H12.6364C12.6364 7.77174 12.7082 7.94516 12.8361 8.07303C12.9639 8.20089 13.1374 8.27273 13.3182 8.27273V7.81818ZM13.0909 7.59091V6.68182H12.6364V7.59091H13.0909ZM13.0909 6.68182C13.0909 6.62154 13.1149 6.56373 13.1575 6.52111C13.2001 6.47849 13.2579 6.45455 13.3182 6.45455V6C13.1374 6 12.9639 6.07183 12.8361 6.1997C12.7082 6.32757 12.6364 6.50099 12.6364 6.68182H13.0909ZM13.3182 6.45455H14.2273V6H13.3182V6.45455ZM14.2273 6.45455C14.2875 6.45455 14.3454 6.47849 14.388 6.52111C14.4306 6.56373 14.4545 6.62154 14.4545 6.68182H14.9091C14.9091 6.50099 14.8373 6.32757 14.7094 6.1997C14.5815 6.07183 14.4081 6 14.2273 6V6.45455ZM14.4545 6.68182V7.59091H14.9091V6.68182H14.4545ZM14.4545 7.59091C14.4545 7.65119 14.4306 7.70899 14.388 7.75162C14.3454 7.79424 14.2875 7.81818 14.2273 7.81818V8.27273C14.4081 8.27273 14.5815 8.20089 14.7094 8.07303C14.8373 7.94516 14.9091 7.77174 14.9091 7.59091H14.4545ZM8.09091 10.7727C8.51284 10.7727 8.9175 10.6051 9.21585 10.3068C9.5142 10.0084 9.68182 9.60375 9.68182 9.18182C9.68182 8.75988 9.5142 8.35523 9.21585 8.05688C8.9175 7.75852 8.51284 7.59091 8.09091 7.59091C7.66897 7.59091 7.26432 7.75852 6.96597 8.05688C6.66761 8.35523 6.5 8.75988 6.5 9.18182C6.5 9.60375 6.66761 10.0084 6.96597 10.3068C7.26432 10.6051 7.66897 10.7727 8.09091 10.7727Z" fill="#4F5465"/>
<path d="M4.079 25.7H8.849C8.984 25.7 9.047 25.763 9.047 25.898V26.753C9.047 26.888 8.984 26.951 8.849 26.951H4.34C3.998 26.951 3.863 27.14 3.863 27.455V27.761C3.863 28.094 4.016 28.265 4.331 28.265H7.706C8.741 28.265 9.281 28.823 9.281 29.813V30.533C9.281 31.406 8.777 32 7.688 32H2.702C2.567 32 2.495 31.937 2.495 31.802V30.947C2.495 30.812 2.567 30.749 2.702 30.749H7.427C7.769 30.749 7.904 30.56 7.904 30.245V29.876C7.904 29.543 7.751 29.372 7.436 29.372H4.061C3.026 29.372 2.486 28.814 2.486 27.824V27.167C2.486 26.294 2.99 25.7 4.079 25.7ZM9.9167 25.7H11.0507C11.1677 25.7 11.2127 25.736 11.2577 25.817L13.8947 30.659C13.9217 30.713 13.9487 30.722 14.0027 30.722H14.0477C14.0927 30.722 14.1197 30.713 14.1467 30.659L16.7477 25.817C16.7927 25.727 16.8467 25.7 16.9547 25.7H18.1337C18.2777 25.7 18.3047 25.79 18.2417 25.907L15.2897 31.316C14.9927 31.865 14.7227 32 14.3447 32H13.8227C13.3547 32 13.0937 31.865 12.7877 31.316L9.7997 25.907C9.7367 25.79 9.7637 25.7 9.9167 25.7ZM21.0908 25.7H25.6538C25.7888 25.7 25.8518 25.763 25.8518 25.898V26.78C25.8518 26.915 25.7888 26.987 25.6538 26.987H21.1448C20.2178 26.987 19.9478 27.257 19.9478 28.211V29.507C19.9478 30.461 20.2178 30.74 21.1448 30.74H24.1148C24.4298 30.74 24.5648 30.596 24.5648 30.191V29.462C24.5648 29.381 24.5378 29.345 24.4568 29.345H21.8198C21.6938 29.345 21.6218 29.273 21.6218 29.138V28.463C21.6218 28.328 21.6938 28.256 21.8198 28.256H25.5728C25.7528 28.256 25.8428 28.346 25.8428 28.526V30.623C25.8428 31.631 25.4468 32 24.7268 32H21.0908C19.2728 32 18.5708 31.352 18.5708 29.624V28.076C18.5708 26.348 19.2728 25.7 21.0908 25.7Z" fill="#F9F7F7"/>
</svg>
