<svg width="32" height="42" viewBox="0 0 32 42" fill="none" xmlns="http://www.w3.org/2000/svg">
<path d="M1.5 41H30.5C30.775 41 31 40.775 31 40.5V11H22.5C21.673 11 21 10.327 21 9.5V1H1.5C1.225 1 1 1.225 1 1.5V40.5C1 40.775 1.225 41 1.5 41Z" fill="white"/>
<path d="M30.293 9.99613L22 1.70312V9.49613C22 9.77112 22.225 9.99613 22.5 9.99613H30.293Z" fill="white"/>
<path opacity="0.67" fill-rule="evenodd" clip-rule="evenodd" d="M31.56 9.854L22.146 0.439C21.8642 0.158905 21.4833 0.00117333 21.086 0H1.5C0.673 0 0 0.673 0 1.5V40.5C0 41.327 0.673 42 1.5 42H30.5C31.327 42 32 41.327 32 40.5V10.914C32 10.514 31.844 10.137 31.56 9.854ZM22 1.707L30.293 10H22.5C22.3675 9.99974 22.2405 9.94697 22.1467 9.85326C22.053 9.75955 22.0003 9.63253 22 9.5V1.707ZM1.5 41H30.5C30.775 41 31 40.775 31 40.5V11H22.5C21.673 11 21 10.327 21 9.5V1H1.5C1.225 1 1 1.225 1 1.5V40.5C1 40.776 1.224 41 1.5 41Z" fill="#605E5C"/>
<path d="M0 22H25C26.1046 22 27 22.8954 27 24V34C27 35.1046 26.1046 36 25 36H0V22Z" fill="#8E94A9"/>
<path d="M2.414 25.7H9.443C9.578 25.7 9.65 25.763 9.65 25.898V26.78C9.65 26.915 9.578 26.987 9.443 26.987H6.617V31.802C6.617 31.937 6.554 32 6.419 32H5.438C5.303 32 5.24 31.937 5.24 31.802V26.987H2.414C2.279 26.987 2.207 26.915 2.207 26.78V25.898C2.207 25.763 2.279 25.7 2.414 25.7ZM16.2924 25.7H17.4624C17.6244 25.7 17.6334 25.853 17.5524 25.934L14.7894 28.733L17.6784 31.766C17.7594 31.847 17.7504 32 17.5884 32H16.3554C16.2114 32 16.1394 31.964 16.0674 31.874L13.8444 29.543L11.6124 31.874C11.5314 31.964 11.4684 32 11.3154 32H10.1454C9.99242 32 9.98342 31.847 10.0644 31.766L13.0254 28.688L10.3524 25.934C10.2804 25.853 10.2804 25.7 10.4424 25.7H11.6754C11.8194 25.7 11.8914 25.745 11.9634 25.826L13.9254 27.914L16.0044 25.826C16.0764 25.745 16.1484 25.7 16.2924 25.7ZM18.287 25.7H25.316C25.451 25.7 25.523 25.763 25.523 25.898V26.78C25.523 26.915 25.451 26.987 25.316 26.987H22.49V31.802C22.49 31.937 22.427 32 22.292 32H21.311C21.176 32 21.113 31.937 21.113 31.802V26.987H18.287C18.152 26.987 18.08 26.915 18.08 26.78V25.898C18.08 25.763 18.152 25.7 18.287 25.7Z" fill="#F9F7F7"/>
<path fill-rule="evenodd" clip-rule="evenodd" d="M17.1796 6.76923H4.28042C4.20605 6.76923 4.13472 6.72871 4.08213 6.65658C4.02954 6.58445 4 6.48662 4 6.38462C4 6.28261 4.02954 6.18478 4.08213 6.11265C4.13472 6.04052 4.20605 6 4.28042 6H17.1796C17.254 6 17.3253 6.04052 17.3779 6.11265C17.4305 6.18478 17.46 6.28261 17.46 6.38462C17.46 6.48662 17.4305 6.58445 17.3779 6.65658C17.3253 6.72871 17.254 6.76923 17.1796 6.76923ZM17.1796 9.07692H4.28042C4.20605 9.07692 4.13472 9.0364 4.08213 8.96427C4.02954 8.89214 4 8.79431 4 8.69231C4 8.5903 4.02954 8.49247 4.08213 8.42034C4.13472 8.34821 4.20605 8.30769 4.28042 8.30769H17.1796C17.254 8.30769 17.3253 8.34821 17.3779 8.42034C17.4305 8.49247 17.46 8.5903 17.46 8.69231C17.46 8.79431 17.4305 8.89214 17.3779 8.96427C17.3253 9.0364 17.254 9.07692 17.1796 9.07692ZM4.28042 11.3846H17.1796C17.254 11.3846 17.3253 11.3441 17.3779 11.272C17.4305 11.1998 17.46 11.102 17.46 11C17.46 10.898 17.4305 10.8002 17.3779 10.728C17.3253 10.6559 17.254 10.6154 17.1796 10.6154H4.28042C4.20605 10.6154 4.13472 10.6559 4.08213 10.728C4.02954 10.8002 4 10.898 4 11C4 11.102 4.02954 11.1998 4.08213 11.272C4.13472 11.3441 4.20605 11.3846 4.28042 11.3846ZM17.1796 13.6923H4.28042C4.20605 13.6923 4.13472 13.6518 4.08213 13.5797C4.02954 13.5075 4 13.4097 4 13.3077C4 13.2057 4.02954 13.1079 4.08213 13.0357C4.13472 12.9636 4.20605 12.9231 4.28042 12.9231H17.1796C17.254 12.9231 17.3253 12.9636 17.3779 13.0357C17.4305 13.1079 17.46 13.2057 17.46 13.3077C17.46 13.4097 17.4305 13.5075 17.3779 13.5797C17.3253 13.6518 17.254 13.6923 17.1796 13.6923ZM4.28042 16H17.1796C17.254 16 17.3253 15.9595 17.3779 15.8873C17.4305 15.8152 17.46 15.7174 17.46 15.6154C17.46 15.5134 17.4305 15.4155 17.3779 15.3434C17.3253 15.2713 17.254 15.2308 17.1796 15.2308H4.28042C4.20605 15.2308 4.13472 15.2713 4.08213 15.3434C4.02954 15.4155 4 15.5134 4 15.6154C4 15.7174 4.02954 15.8152 4.08213 15.8873C4.13472 15.9595 4.20605 16 4.28042 16Z" fill="#C8C6C4"/>
</svg>
