<svg width="16" height="16" viewBox="0 0 16 16" fill="none" xmlns="http://www.w3.org/2000/svg">
<path d="M16 7.99983C16 12.4182 12.4182 15.9997 7.99983 15.9997C3.5816 15.9997 0 12.4181 0 7.99983C0 3.5816 3.5816 0 7.99983 0C12.4182 0 16 3.5816 16 7.99983ZM13.5649 2.43505L12.6256 1.63282L11.5727 0.987478L10.4319 0.515133L9.71017 0.902741L9.783 1.55077L9.14923 2.00231L8.87959 2.40284L8.88982 1.99257L7.99127 1.78249L7.2315 2.38488L6.99255 2.64882L6.51417 2.8136L6.69556 3.38629L7.07226 3.19735L7.22059 3.56449L7.53437 3.52321L7.67448 3.11479L7.57984 2.78054L7.99631 2.30199L8.02936 2.45888L7.84361 2.77249L7.98406 3.03643L8.42939 2.93743L8.01292 3.17251L7.88892 3.69637L7.22462 3.83665L6.98131 3.75829L7.03081 3.36665L6.74187 3.4821L6.80798 3.83279L6.38614 3.96954L6.01061 4.30396L5.375 4.55129L5.61394 4.90786L5.47769 5.3245L4.78033 5.20486L4.64408 5.30386L4.43283 6.11884L4.58569 6.17639L4.74141 6.4046L4.93051 6.30895L5.1921 6.33463L5.51427 6.08025L5.4792 5.92151L5.68039 5.70355L5.84148 5.67552L5.97219 5.55891L5.95339 5.42819L6.1029 5.3396L6.33161 5.42014L6.67055 5.23003L6.84003 5.35789L7.08383 5.68425L7.43067 5.88661L7.51339 6.06833L7.45752 6.23596L7.4951 6.25643L7.64327 6.03964L7.57682 5.89953L7.6238 5.81983L7.76525 5.92034L7.7916 5.86211L7.47027 5.67317L7.45835 5.63089L7.21623 5.52082L7.17512 5.38087L7.02058 5.21677L7.059 5.07515L7.18351 5.03169L7.51322 5.38104L7.96191 5.63559L7.96577 5.88409L8.28928 6.3858L8.44265 6.4499L8.39583 6.24603L8.54601 6.21801L8.53678 6.08662L8.37234 6.00927L8.32586 5.79348L8.471 5.83812L8.46647 5.73459L8.79485 5.7111L8.76666 5.93141L8.85156 6.10961L9.1098 6.3301L9.38633 6.36282L9.38968 6.25291L9.71806 6.3301L9.9268 6.16599L10.1028 6.11431L10.1543 6.51048L10.0674 7.01604L9.8731 7.12796L9.7679 7.13686L9.62208 7.08266L9.36116 7.25029L8.86465 7.17008L8.50506 7.10967L8.46698 7.04423L8.23273 7.02427L8.07115 7.16756L8.08792 7.40802L7.91543 7.46473L7.39627 7.25012L7.22411 7.08014L6.78163 6.97359L6.73448 6.82744L6.85496 6.65998L6.72274 6.37221L6.05676 6.41836L5.50404 6.45829L5.15385 6.60696L4.80668 6.55276L4.7362 6.45779L4.51304 6.75646L4.1068 7.07511L4.0073 7.35768L3.4331 7.78522L2.97871 8.47486L3.05036 8.8133L2.88324 9.55781L3.05254 10.0513L3.43126 10.725L4.08516 11.295L4.9384 11.3667L5.72385 11.2047L6.1269 11.56L6.71384 11.7595L6.66518 12.3551L7.38469 13.2342L7.52598 13.7066L7.29794 14.0544L7.38603 14.4145L7.93825 15.0543L8.44315 15.4446L9.2932 15.3441L10.2954 14.7232L10.6366 14.1767L11.4454 13.4814L11.3031 12.4489L12.041 11.2851L12.6946 10.4762L12.8397 9.49858L12.044 10.0058L11.7737 9.69306L10.9908 9.13816L10.4929 8.32032L10.1449 7.81391L9.8674 7.46272L9.78048 7.16421L9.95163 7.45584L10.1568 7.62699L10.1954 7.24861L10.2755 7.54057L10.7294 8.11712L11.0086 8.30539L11.1004 8.64987L11.5088 9.0014L11.8935 9.68282L12.4244 9.35495L13.1569 8.53728L13.4443 7.50131L12.9429 7.18602L12.6837 7.55786L12.3078 7.4852L11.8509 6.94742L11.9558 6.75328L12.5785 7.14139L12.9223 6.96352L13.1163 7.11706L13.8851 6.74505L14.4501 7.17629L14.5048 6.95446L15.0209 7.99262L15.2474 8.61195L15.353 8.12601L15.2072 7.36103L15.2659 6.29721L15.3157 5.70841L15.4845 5.56763L15.012 4.42645L14.3663 3.3737L13.5649 2.43505ZM11.8326 4.22996L11.9565 4.4778L12.14 4.4179L12.0932 4.18315L11.9437 4.02525L11.8326 4.22996ZM10.8373 4.5971L10.9868 4.83185L11.418 5.22885L11.4865 5.6814L11.9224 5.73291L12.106 5.62183L11.5933 4.89158L11.243 4.63536L11.3242 4.39189L11.1747 4.26805L10.8373 4.5971ZM9.54808 4.75869L9.81421 4.8342L9.50295 5.04176L9.39187 4.89947L9.45966 4.81003L9.24823 4.72681L8.93915 5.13405L8.9014 5.57871L9.20226 5.61159L9.74424 5.38138L10.499 5.42819L10.5629 5.23204L9.91891 4.87816L9.94442 4.54559L9.54808 4.75869ZM10.2985 11.9758L10.2641 12.2587L10.4142 12.2543L10.6069 11.933L10.5299 11.8645L10.2985 11.9758ZM9.89542 12.884L10.1485 13.0812L9.84408 12.4942L9.89542 12.884ZM9.20259 0.477379L9.23112 0.226692L7.99983 0.129874L6.76871 0.22686L5.56797 0.515133L5.34866 0.849214L6.27758 0.636617L5.59431 0.918682L4.46874 1.71252L3.81803 2.14225L3.82256 2.43841L4.62361 1.94777L5.13052 1.86673L5.75741 1.76152L6.62609 1.05309L6.57189 1.23229L7.25348 0.977914L8.36982 0.815488L9.20259 0.477379ZM6.71636 5.82973L6.65445 5.72267L6.54269 5.81278L6.57122 5.90322L6.53565 6.07203L6.66653 6.04115L6.71636 5.82973ZM6.71485 5.52921L6.68062 5.48491L6.58783 5.55136L6.64488 5.70036L6.71485 5.52921ZM7.37832 6.31885L7.43369 6.18244L7.30113 6.2415L7.06957 6.2175L7.0689 6.28496L7.34308 6.45108L7.40785 6.41181L7.37832 6.31885ZM8.90559 6.56685L8.78797 6.60041L8.51731 6.57155L8.73528 6.66988L8.90559 6.56685ZM9.94744 6.36919L9.76588 6.45192L9.67208 6.52239L9.73048 6.56736L9.85532 6.50897L9.94744 6.36919ZM12.3721 13.6708L12.676 13.1164L12.6609 12.7978L12.3947 13.1698L11.8559 13.5493L11.8481 13.8532L11.6356 14.0734L11.6583 14.4074L12.3721 13.6708Z" fill="black" fill-opacity="0.4"/>
</svg>
