<svg width="25" height="25" viewBox="0 0 25 25" fill="none" xmlns="http://www.w3.org/2000/svg">
<path d="M6.08978 0C4.47471 0 2.92569 0.641614 1.78364 1.78364C0.641588 2.92566 0 4.47466 0 6.08978C0 7.70491 0.641614 9.25388 1.78364 10.3959C2.92566 11.538 4.47466 12.1796 6.08978 12.1796H9.93593C10.5299 12.1762 11.0987 11.9388 11.5187 11.5187C11.9387 11.0987 12.1761 10.53 12.1795 9.93598V6.08983C12.1795 4.47476 11.5379 2.92574 10.3959 1.78369C9.25385 0.64164 7.70486 5.12538e-05 6.08973 5.12538e-05L6.08978 0ZM10.2564 9.93588C10.2564 10.0209 10.2227 10.1024 10.1626 10.1625C10.1025 10.2226 10.021 10.2564 9.93593 10.2564H6.08978C4.98471 10.2564 3.92491 9.81739 3.14338 9.03603C2.36202 8.25457 1.92302 7.19478 1.92302 6.08963C1.92302 4.98448 2.36202 3.92476 3.14338 3.14322C3.92484 2.36187 4.98463 1.92287 6.08978 1.92287C7.19493 1.92287 8.25465 2.36187 9.03619 3.14322C9.81754 3.92468 10.2565 4.98448 10.2565 6.08963L10.2564 9.93588Z" fill="#6E6E73"/>
<path d="M9.93582 12.8204H4.80763C3.53258 12.8204 2.30974 13.3269 1.40815 14.2285C0.506512 15.1302 0 16.353 0 17.628V18.91C0 20.5251 0.641614 22.0741 1.78364 23.2162C2.92566 24.3582 4.47466 24.9998 6.08978 24.9998C7.70491 24.9998 9.25388 24.3582 10.3959 23.2162C11.538 22.0742 12.1796 20.5252 12.1796 18.91V15.0639C12.1762 14.47 11.9388 13.9011 11.5187 13.4812C11.0987 13.0611 10.53 12.8237 9.93598 12.8203L9.93582 12.8204ZM10.2563 18.9101C10.2563 20.3987 9.46216 21.7742 8.17301 22.5185C6.88386 23.2628 5.29558 23.2628 4.00635 22.5185C2.7172 21.7743 1.92302 20.3987 1.92302 18.9101V17.628C1.92302 16.863 2.22692 16.1293 2.76787 15.5883C3.30884 15.0473 4.04261 14.7434 4.80763 14.7434H9.93582C10.0209 14.7434 10.1024 14.7772 10.1625 14.8373C10.2226 14.8974 10.2563 14.9789 10.2563 15.0639V18.9101Z" fill="#6E6E73"/>
<path d="M15.0639 12.1796H18.9101C20.5252 12.1796 22.0742 11.5379 23.2162 10.3959C24.3583 9.2539 24.9999 7.70491 24.9999 6.08978C24.9999 4.47466 24.3583 2.92569 23.2162 1.78364C22.0742 0.641588 20.5252 0 18.9101 0C17.295 0 15.746 0.641614 14.6039 1.78364C13.4619 2.92566 12.8203 4.47466 12.8203 6.08978V9.93593C12.8237 10.5299 13.0611 11.0987 13.4812 11.5187C13.9011 11.9387 14.4699 12.1761 15.0639 12.1795L15.0639 12.1796ZM14.7434 6.08983C14.7434 4.98476 15.1824 3.92497 15.9638 3.14343C16.7453 2.36207 17.805 1.92307 18.9102 1.92307C20.0153 1.92307 21.0751 2.36207 21.8566 3.14343C22.638 3.92489 23.077 4.98468 23.077 6.08983C23.077 7.19498 22.638 8.2547 21.8566 9.03624C21.0751 9.81759 20.0153 10.2566 18.9102 10.2566H15.0641C14.8871 10.2566 14.7435 10.1131 14.7435 9.93608L14.7434 6.08983Z" fill="#6E6E73"/>
<path d="M18.91 12.8204H15.0639C14.4699 12.8238 13.9011 13.0611 13.4812 13.4812C13.0611 13.9012 12.8237 14.47 12.8203 15.0639V18.9101C12.8203 20.5252 13.4619 22.0742 14.6039 23.2162C15.746 24.3583 17.295 24.9999 18.9101 24.9999C20.5252 24.9999 22.0742 24.3583 23.2162 23.2162C24.3583 22.0742 24.9999 20.5252 24.9999 18.9101C24.9999 17.295 24.3583 15.746 23.2162 14.6039C22.0742 13.4619 20.5252 12.8203 18.9101 12.8203L18.91 12.8204ZM18.91 23.0768C17.806 23.0733 16.7482 22.6333 15.9675 21.8526C15.1867 21.072 14.7467 20.0142 14.7433 18.91V15.0639C14.7433 14.8869 14.8869 14.7434 15.0638 14.7434H18.91C20.3986 14.7434 21.7741 15.5376 22.5184 16.8267C23.2627 18.1159 23.2627 19.7041 22.5184 20.9934C21.7742 22.2825 20.3986 23.0767 18.91 23.0767L18.91 23.0768Z" fill="#6E6E73"/>
</svg>
