<svg width="27" height="29" viewBox="0 0 27 29" fill="none" xmlns="http://www.w3.org/2000/svg">
<path d="M20.2628 23.9039H6.73652L6.96952 25.2397L20.2628 23.9039ZM20.2628 23.9039L20.0298 25.2399L20.0297 25.2401C19.9717 25.5756 19.802 25.859 19.5664 26.0573L19.5661 26.0575C19.3322 26.2552 19.024 26.3722 18.6818 26.3722H8.31751C7.97655 26.3722 7.66818 26.2552 7.43295 26.0573C7.19752 25.8592 7.02866 25.5759 6.96955 25.2399L20.2628 23.9039ZM5.02131 23.1118H5.0191L5.04979 23.2876L5.43735 25.5071L5.43735 25.5072C5.55993 26.2078 5.92233 26.8124 6.43456 27.2425C6.94771 27.6734 7.60514 27.9267 8.31712 27.9267H18.6814C19.3935 27.9267 20.052 27.6723 20.564 27.2425L20.5641 27.2424C21.0751 26.8124 21.4386 26.208 21.5612 25.5072L21.5612 25.5071L21.9487 23.2878L21.9487 23.2876L21.9499 23.2814C21.9524 23.2672 21.9556 23.2493 21.958 23.2304L24.7003 7.54101C25.0156 7.43559 25.298 7.25753 25.5274 7.02806C25.9119 6.64356 26.15 6.11264 26.15 5.52876V4.24977C26.15 3.3145 25.7666 2.46336 25.1516 1.84837C24.5367 1.2334 23.6866 0.85 22.7502 0.85H4.24977C3.3145 0.85 2.46336 1.23341 1.84837 1.84837C1.2334 2.46332 0.85 3.31339 0.85 4.24977V5.52876C0.85 6.11384 1.08921 6.6447 1.47257 7.02806M5.02131 23.1118L1.47257 7.02806M5.02131 23.1118L2.29964 7.54076C1.98468 7.4348 1.70229 7.2578 1.47257 7.02806M5.02131 23.1118L1.47257 7.02806M1.47257 7.02806C1.47257 7.02806 1.47257 7.02806 1.47257 7.02806L1.57864 6.922L1.47257 7.02806ZM3.89554 7.65052H23.1036L20.535 22.3483H6.46413L3.89554 7.65052ZM2.94807 2.9477L2.94823 2.94755C3.28224 2.61256 3.74309 2.40553 4.25018 2.40553H22.7506C23.2566 2.40553 23.7177 2.6125 24.0529 2.9477C24.3881 3.28289 24.5951 3.74386 24.5951 4.24981V5.5288C24.5951 5.68374 24.5321 5.82543 24.4287 5.92879C24.3261 6.03138 24.1844 6.09518 24.0298 6.09518H2.9712C2.81772 6.09518 2.67498 6.03138 2.57249 5.929C2.46954 5.82508 2.4059 5.68312 2.4059 5.5288V4.24981C2.4059 3.74386 2.61286 3.28292 2.94807 2.9477Z" fill="#6E6E73" stroke="#6E6E73" stroke-width="0.3"/>
<path d="M13.4509 11.1075L13.4557 11.1528C13.3665 11.1624 13.2688 11.2043 13.1626 11.2777C13.0569 11.3508 12.9507 11.4495 12.8457 11.5616C12.7409 11.6734 12.6409 11.7945 12.5461 11.9109C12.5356 11.9237 12.5252 11.9365 12.5149 11.9493C12.4334 12.0494 12.3545 12.1464 12.2833 12.2236C11.8457 12.7318 11.3914 13.2289 10.9154 13.7112L10.6723 13.5433C11.1016 12.609 11.5527 11.7321 12.0733 10.8437L12.0755 10.84L12.0756 10.84C12.3083 10.4679 12.6762 10.1588 13.1076 9.99825C14.1787 9.5424 15.4828 10.1871 15.9442 11.2154C16.0002 11.3113 16.0573 11.4116 16.1141 11.5119L17.0377 10.953C17.1278 10.8963 17.2382 10.9053 17.3187 10.9646M13.4509 11.1075L17.2298 11.0855M13.4509 11.1075L13.4671 11.152C13.7727 11.0899 14.0215 11.1481 14.2258 11.281C14.4338 11.4164 14.6051 11.6359 14.7363 11.9096L14.7395 11.9163L14.7433 11.9226C14.804 12.0226 14.8684 12.125 14.933 12.227L14.144 12.7045L14.1439 12.7045L14.1405 12.7067C14.0584 12.7595 14.0099 12.8552 14.0256 12.9584L14.0255 12.9584L14.0263 12.9628C14.0437 13.0585 14.1121 13.1396 14.215 13.1646L14.2148 13.1646L14.2505 13.0189L14.2152 13.1647M13.4509 11.1075L14.2152 13.1647M17.3187 10.9646C17.3188 10.9647 17.319 10.9649 17.3191 10.965L17.2298 11.0855M17.3187 10.9646C17.3186 10.9646 17.3185 10.9645 17.3183 10.9644L17.2298 11.0855M17.3187 10.9646C17.4008 11.0248 17.4376 11.1284 17.4132 11.2269M17.2298 11.0855C17.2625 11.1094 17.2776 11.1509 17.2676 11.1911M17.4132 11.2269L17.2676 11.1911M17.4132 11.2269L17.4131 11.2275M17.4132 11.2269L17.4131 11.2275M17.2676 11.1911L17.4131 11.2275M17.2676 11.1911L17.4131 11.2275M16.7322 13.7036C16.7881 13.6685 16.8273 13.613 16.8426 13.5497L16.8425 13.55L16.6968 13.5142L16.8428 13.5489L16.6516 13.577M16.7322 13.7036C16.7331 13.703 16.7339 13.7024 16.7348 13.7019L16.6516 13.577M16.7322 13.7036C16.7314 13.7041 16.7306 13.7045 16.7298 13.705L16.6516 13.577M16.7322 13.7036C16.6889 13.7315 16.6398 13.7421 16.5988 13.7421C16.5986 13.7421 16.5984 13.7421 16.598 13.7421C16.5925 13.7422 16.5647 13.7428 16.5348 13.7345M16.6516 13.577C16.6365 13.5871 16.6164 13.5921 16.5988 13.5921C16.59 13.5921 16.5812 13.5921 16.5736 13.5896M16.5348 13.7345L16.5379 13.7353L16.5736 13.5896M16.5348 13.7345L14.2152 13.1647M16.5348 13.7345C16.532 13.7337 16.5291 13.7329 16.5262 13.7319L16.5736 13.5896M16.5736 13.5896L14.2152 13.1647M17.4068 16.1838C17.243 15.6604 17.0925 15.1307 16.9572 14.594L17.2268 14.4732C17.7954 15.3108 18.307 16.1547 18.7918 17.0411L18.793 17.0432L18.793 17.0432C18.9968 17.4305 19.072 17.8975 19.001 18.3464C18.8502 19.4897 17.683 20.3154 16.537 20.1869C16.4067 20.1841 16.2714 20.1801 16.1361 20.1757L16.1339 21.259L17.4068 16.1838ZM17.4068 16.1838L17.3981 16.1795L17.5123 16.5208L17.8254 17.4561L17.8255 17.4565C17.9262 17.7542 17.8648 18.0794 17.6961 18.3382C17.5279 18.5964 17.2631 18.7736 16.9728 18.7934C16.8534 18.7943 16.732 18.7947 16.6094 18.7951C16.4534 18.7957 16.2956 18.7962 16.1378 18.7978M17.4068 16.1838L16.1378 18.7978M16.1378 18.7978L16.1389 17.875V17.8749C16.1389 17.7732 16.079 17.6821 15.9841 17.6422L15.9834 17.642C15.8922 17.6042 15.785 17.6234 15.7117 17.6937L15.7116 17.6936L15.7095 17.6957L14.0162 19.384C13.9643 19.4339 13.9407 19.5005 13.9407 19.5631C13.9407 19.628 13.9649 19.6929 14.016 19.7421L15.7042 21.4353L15.7043 21.4354C15.7517 21.4828 15.8146 21.5095 15.8808 21.5095C15.9124 21.5095 15.9453 21.5038 15.9767 21.4913L15.9768 21.4913L15.9807 21.4896C16.0686 21.4515 16.1338 21.3652 16.1339 21.2593L16.1378 18.7978ZM7.98079 15.5361L7.98117 15.5363L8.9299 16.0562C8.87336 16.1517 8.81711 16.2473 8.76418 16.3402C8.10343 17.254 8.18789 18.7035 9.11856 19.4089C9.4718 19.7065 9.92535 19.8704 10.3645 19.8866L10.3645 19.8867L10.3691 19.8867C11.4019 19.893 12.3874 19.8425 13.4136 19.7465L13.4373 19.452C12.7795 19.2815 12.1208 19.1376 11.46 19.014C11.3579 18.9912 11.2349 18.9715 11.1081 18.9513C11.0913 18.9486 11.0745 18.9459 11.0576 18.9432C10.9093 18.9195 10.7545 18.8935 10.6053 18.8587C10.4558 18.8238 10.3173 18.7811 10.2015 18.7258C10.0851 18.6702 10.0002 18.6061 9.94751 18.5328L9.94284 18.5263L9.9375 18.5204C9.65259 18.2022 9.59174 17.7491 9.76102 17.4171L9.7844 17.3743L9.7844 17.3743L9.78467 17.3738C9.8928 17.1757 10.0159 16.9503 10.1388 16.7183L10.9467 17.1605L10.953 17.164L10.9596 17.1668C10.9829 17.1768 11.0206 17.1915 11.069 17.1915C11.1271 17.1915 11.1812 17.1715 11.2256 17.136L11.2261 17.1356C11.3063 17.0708 11.3382 16.9661 11.3082 16.8677L10.6385 14.5733L10.6385 14.5733L10.6382 14.5723C10.6199 14.5111 10.5772 14.4548 10.5154 14.4223C10.4577 14.3919 10.3883 14.3846 10.3256 14.4038L8.03275 15.0731C8.03246 15.0732 8.03218 15.0732 8.0319 15.0733C7.93068 15.1022 7.86342 15.1882 7.85154 15.2862L7.85147 15.2862L7.85107 15.2906C7.84205 15.3899 7.89086 15.4865 7.98079 15.5361ZM16.1879 11.6426L16.0595 11.7203L16.0478 11.6995C16.0271 11.6629 16.0064 11.6262 15.9857 11.5896L16.1879 11.6426Z" fill="#6E6E73" stroke="#6E6E73" stroke-width="0.3"/>
</svg>
