<svg width="25" height="28" viewBox="0 0 25 28" fill="none" xmlns="http://www.w3.org/2000/svg">
<path d="M24.8577 4.78026C24.6681 4.45203 24.3171 4.24873 23.9378 4.24873L18.6259 4.24986V3.18797C18.6259 2.34299 18.2897 1.53208 17.6923 0.934696C17.0949 0.336174 16.2852 0 15.4391 0H9.06545C8.22047 0 7.40956 0.336173 6.81217 0.933557C6.21479 1.53094 5.87862 2.34185 5.87862 3.18683V4.24872L1.06219 4.24986C0.682864 4.24986 0.331911 4.45202 0.142249 4.78139C-0.0474162 5.10962 -0.0474162 5.51506 0.142249 5.84329C0.331914 6.17151 0.68284 6.37482 1.06219 6.37482H1.62892V22.3103C1.63006 23.7186 2.1911 25.069 3.18712 26.0638C4.18314 27.0598 5.53239 27.6197 6.94063 27.622H17.5642C18.9725 27.6209 20.3229 27.0598 21.3177 26.0638C22.3137 25.0678 22.8737 23.7185 22.8759 22.3103V6.37482H23.9378C24.3171 6.37482 24.6681 6.17266 24.8578 5.84329C25.0474 5.51392 25.0474 5.10962 24.8578 4.78025L24.8577 4.78026ZM8.0035 3.18683C8.0035 2.90517 8.11594 2.63488 8.31469 2.43613C8.51345 2.23738 8.78374 2.12493 9.0654 2.12493H15.439C15.7207 2.12493 15.991 2.23737 16.1897 2.43613C16.3885 2.63489 16.5009 2.90517 16.5009 3.18683V4.24873L8.0034 4.24986L8.0035 3.18683ZM20.751 22.3091C20.751 23.1541 20.4148 23.965 19.8174 24.5624C19.22 25.1598 18.4091 25.4959 17.5641 25.4959H6.94056C6.09558 25.4959 5.28467 25.1598 4.68729 24.5624C4.08991 23.965 3.75373 23.1541 3.75373 22.3091V6.37363H20.7509L20.751 22.3091Z" fill="#40545E"/>
<path d="M8.53818 21.1053C8.86641 21.295 9.27185 21.295 9.60008 21.1053C9.9283 20.9156 10.1316 20.5647 10.1316 20.1854V11.6869C10.1316 11.4052 10.0192 11.1349 9.82041 10.9362C9.62165 10.7374 9.35137 10.625 9.06971 10.625C8.78805 10.625 8.51775 10.7374 8.31901 10.9362C8.12026 11.135 8.00781 11.4052 8.00781 11.6869V20.1854C8.00781 20.5658 8.20997 20.9156 8.5382 21.1053H8.53818Z" fill="#40545E"/>
<path d="M14.9132 21.1053C15.2414 21.295 15.6469 21.295 15.9751 21.1053C16.3033 20.9156 16.5066 20.5647 16.5066 20.1854V11.6869C16.5066 11.4052 16.3942 11.1349 16.1954 10.9362C15.9967 10.7374 15.7264 10.625 15.4447 10.625C15.1631 10.625 14.8928 10.7374 14.694 10.9362C14.4953 11.135 14.3828 11.4052 14.3828 11.6869V20.1854C14.3817 20.5658 14.5838 20.9156 14.9132 21.1053H14.9132Z" fill="#40545E"/>
</svg>
