<svg width="584" height="445" viewBox="0 0 584 445" fill="none" xmlns="http://www.w3.org/2000/svg">
<path d="M519.304 173.526C519.939 166.534 520.575 159.543 520.575 152.549C520.575 68.0114 452.563 0 368.026 0C319.719 0 277.132 22.2467 249.164 57.2059C236.452 53.3926 223.105 50.8497 209.119 50.8497C140.472 50.8497 83.902 102.334 76.2745 169.075C32.4161 181.788 0 221.833 0 270.139C0 327.98 47.0365 375.016 104.877 375.016H478.623C536.464 375.016 583.5 327.98 583.5 270.139C583.5 226.916 556.803 189.415 519.302 173.525L519.304 173.526ZM223.74 92.8017C199.586 88.9884 175.434 95.3446 155.093 109.962C135.39 124.583 122.677 146.192 118.864 170.346C118.229 174.16 115.051 177.338 111.238 177.338H109.967C105.519 176.703 102.976 172.889 103.611 168.438C108.06 139.836 123.315 115.046 146.197 97.8846C169.078 80.7228 197.681 73.7299 226.285 78.1808C230.733 78.816 233.276 82.6293 232.641 87.0801C232.004 90.8954 227.555 93.4363 223.742 92.8012L223.74 92.8017Z" fill="#007BFF"/>
<path d="M335 140H219.014C206.296 140 196 150.296 196 163.014V421.615C196 434.333 206.296 444.629 219.014 444.629H412.816C425.534 444.629 435.83 434.333 435.83 421.615V246.5C435.83 242.5 392.5 200.5 374 180.5L335 140Z" fill="white"/>
<path d="M335 140V188.072C335 219.699 359.337 245 389.759 245L436 245L335 140Z" fill="#EFEFEF"/>
<path d="M406.25 390.042L426.964 442.666C428.261 445.966 433.016 445.704 433.939 442.276L439.631 421.233C439.976 419.965 440.958 418.983 442.225 418.638L463.269 412.946C466.689 412.023 466.959 407.269 463.659 405.971L411.035 385.265C408.042 384.087 405.087 387.042 406.265 390.035L406.25 390.042Z" fill="black"/>
</svg>
