<svg width="949" height="218" viewBox="0 0 949 218" fill="none" xmlns="http://www.w3.org/2000/svg">
<path d="M76.88 217.8C59.4 217.8 45.0867 214 33.94 206.4C22.7933 198.547 14.56 188.54 9.24 176.38C3.92 164.22 1.26 151.427 1.26 138C1.00667 123.053 3.79333 109.5 9.62 97.34C15.7 85.18 24.3133 75.5533 35.46 68.46C46.86 61.3667 60.4133 57.82 76.12 57.82C89.5467 57.82 101.58 60.86 112.22 66.94C123.113 72.7667 131.727 81.1267 138.06 92.02C144.393 102.66 147.813 115.327 148.32 130.02C148.32 130.78 148.32 132.3 148.32 134.58C148.573 136.607 148.7 138.38 148.7 139.9H31.28C31.28 156.113 35.2067 168.78 43.06 177.9C51.1667 186.767 62.3133 191.2 76.5 191.2C87.14 191.2 96.1333 188.54 103.48 183.22C111.08 177.647 115.767 170.3 117.54 161.18H148.32C146.04 177.393 138.693 190.947 126.28 201.84C113.867 212.48 97.4 217.8 76.88 217.8ZM32.42 124.32H116.78C116.527 121.533 115.767 117.86 114.5 113.3C113.233 108.74 111.08 104.307 108.04 100C105.253 95.44 101.2 91.64 95.88 88.6C90.56 85.56 83.72 84.04 75.36 84.04C64.9733 84.04 56.74 86.32 50.66 90.88C44.8333 95.1867 40.4 100.507 37.36 106.84C34.5733 112.92 32.9267 118.747 32.42 124.32ZM378.232 106.84C378.232 134.96 372.785 156.873 361.892 172.58C350.999 188.033 335.672 198.8 315.912 204.88C296.405 210.96 273.479 214 247.132 214H189.372V0.0599911H247.132C273.479 0.0599911 296.405 4.11333 315.912 12.22C335.672 20.0733 350.999 31.8533 361.892 47.56C372.785 63.2667 378.232 83.0267 378.232 106.84ZM220.912 187.4H255.492C273.479 187.4 289.185 185.373 302.612 181.32C316.039 177.013 326.425 169.033 333.772 157.38C341.119 145.727 344.792 128.753 344.792 106.46C344.792 79.86 336.685 60.1 320.472 47.18C304.259 34.0067 282.599 27.42 255.492 27.42H220.912V187.4ZM477.67 217.8C451.83 217.8 432.577 210.327 419.91 195.38C407.243 180.433 400.91 161.433 400.91 138.38C400.657 115.073 406.99 95.9467 419.91 81C432.83 66.0533 452.083 58.4533 477.67 58.2C502.497 58.2 521.37 65.5467 534.29 80.24C547.21 94.9333 553.67 114.313 553.67 138.38C553.67 153.327 550.883 166.88 545.31 179.04C539.99 190.947 531.63 200.447 520.23 207.54C509.083 214.38 494.897 217.8 477.67 217.8ZM477.67 190.82C489.83 190.82 499.077 188.16 505.41 182.84C511.997 177.52 516.557 170.807 519.09 162.7C521.623 154.34 522.89 145.853 522.89 137.24C522.89 128.627 521.623 120.267 519.09 112.16C516.557 103.8 511.997 96.96 505.41 91.64C499.077 86.0667 489.83 83.28 477.67 83.28C465.257 83.28 455.757 86.0667 449.17 91.64C442.583 96.96 438.023 103.8 435.49 112.16C432.957 120.267 431.69 128.627 431.69 137.24C431.69 145.853 432.957 154.34 435.49 162.7C438.023 170.807 442.583 177.52 449.17 182.84C455.757 188.16 465.257 190.82 477.67 190.82ZM655.451 217.8C640.757 217.8 627.584 214.76 615.931 208.68C604.277 202.6 595.031 193.733 588.191 182.08C581.604 170.427 578.311 156.24 578.311 139.52C578.564 123.053 582.111 108.74 588.951 96.58C595.791 84.42 604.911 75.0467 616.311 68.46C627.964 61.62 641.264 58.2 656.211 58.2C670.904 58.2 683.444 60.9867 693.831 66.56C704.471 72.1333 712.831 79.48 718.911 88.6C724.991 97.4667 728.664 106.967 729.931 117.1H700.671C698.644 107.22 693.831 99.4933 686.231 93.92C678.631 88.3467 669.004 85.56 657.351 85.56C642.151 85.56 630.244 90.3733 621.631 100C613.271 109.627 609.091 122.04 609.091 137.24C609.091 153.453 613.144 166.373 621.251 176C629.611 185.373 641.517 190.06 656.971 190.06C667.864 190.06 677.364 187.273 685.471 181.7C693.577 176.127 698.644 168.02 700.671 157.38H729.931C728.664 168.02 724.864 178.027 718.531 187.4C712.451 196.52 704.091 203.867 693.451 209.44C682.811 215.013 670.144 217.8 655.451 217.8ZM751.947 214L829.467 100.76L758.787 0.0599911H796.787L849.987 81.38L903.567 0.0599911H940.807L871.267 100.76L948.787 214H911.547L849.987 121.28L788.807 214H751.947Z" fill="black" fill-opacity="0.8"/>
</svg>
