<svg width="3052" height="519" viewBox="0 0 3052 519" fill="none" xmlns="http://www.w3.org/2000/svg">
<path d="M1100.58 384.8H1200.52C1200.01 371.12 1195.45 359.973 1186.84 351.36C1178.23 342.493 1166.07 338.06 1150.36 338.06C1136.17 338.06 1124.52 342.747 1115.4 352.12C1106.28 361.24 1101.34 372.133 1100.58 384.8ZM1205.84 432.3L1236.62 442.94C1231.3 459.913 1221.42 473.847 1206.98 484.74C1192.54 495.38 1175.06 500.7 1154.54 500.7C1128.95 500.7 1107.17 491.96 1089.18 474.48C1071.45 456.747 1062.58 432.933 1062.58 403.04C1062.58 375.173 1071.19 352.12 1088.42 333.88C1105.65 315.64 1126.17 306.52 1149.98 306.52C1177.59 306.52 1199.13 315.26 1214.58 332.74C1230.03 349.967 1237.76 373.147 1237.76 402.28C1237.76 406.84 1237.51 410.64 1237 413.68H1099.44C1099.69 429.893 1105.01 443.193 1115.4 453.58C1126.04 463.967 1139.09 469.16 1154.54 469.16C1180.63 469.16 1197.73 456.873 1205.84 432.3ZM1324.4 461.94H1379.5C1405.84 461.94 1427.63 453.2 1444.86 435.72C1462.34 418.24 1471.08 393.287 1471.08 360.86C1471.08 328.18 1462.46 302.973 1445.24 285.24C1428.26 267.507 1406.6 258.64 1380.26 258.64H1324.4V461.94ZM1380.64 495H1287.16V225.58H1381.4C1417.62 225.58 1448.02 237.613 1472.6 261.68C1497.17 285.493 1509.46 318.553 1509.46 360.86C1509.46 402.913 1497.04 435.847 1472.22 459.66C1447.39 483.22 1416.86 495 1380.64 495ZM1594.47 451.68C1605.62 463.08 1619.17 468.78 1635.13 468.78C1651.09 468.78 1664.52 463.08 1675.41 451.68C1686.56 440.027 1692.13 423.94 1692.13 403.42C1692.13 383.153 1686.56 367.32 1675.41 355.92C1664.52 344.267 1651.09 338.44 1635.13 338.44C1619.17 338.44 1605.62 344.267 1594.47 355.92C1583.58 367.32 1578.13 383.153 1578.13 403.42C1578.13 423.94 1583.58 440.027 1594.47 451.68ZM1567.87 334.26C1585.61 315.767 1608.03 306.52 1635.13 306.52C1662.24 306.52 1684.53 315.767 1702.01 334.26C1719.75 352.5 1728.61 375.553 1728.61 403.42C1728.61 431.54 1719.87 454.847 1702.39 473.34C1684.91 491.58 1662.49 500.7 1635.13 500.7C1607.77 500.7 1585.35 491.58 1567.87 473.34C1550.39 454.847 1541.65 431.54 1541.65 403.42C1541.65 375.553 1550.39 352.5 1567.87 334.26ZM1851.07 339.58C1835.62 339.58 1822.45 345.153 1811.55 356.3C1800.91 367.447 1795.59 383.153 1795.59 403.42C1795.59 423.433 1800.91 439.14 1811.55 450.54C1822.45 461.94 1835.75 467.64 1851.45 467.64C1866.65 467.64 1878.18 463.84 1886.03 456.24C1894.14 448.64 1899.59 439.9 1902.37 430.02L1933.91 443.7C1928.85 458.9 1919.22 472.2 1905.03 483.6C1891.1 495 1873.24 500.7 1851.45 500.7C1824.85 500.7 1802.81 491.453 1785.33 472.96C1767.85 454.467 1759.11 431.287 1759.11 403.42C1759.11 375.047 1767.85 351.867 1785.33 333.88C1802.81 315.64 1824.73 306.52 1851.07 306.52C1873.37 306.52 1891.35 312.22 1905.03 323.62C1918.97 335.02 1928.09 348.7 1932.39 364.66L1900.09 378.34C1897.31 367.7 1891.99 358.58 1884.13 350.98C1876.28 343.38 1865.26 339.58 1851.07 339.58ZM2147.58 339.58C2132.12 339.58 2118.95 345.153 2108.06 356.3C2097.42 367.447 2092.1 383.153 2092.1 403.42C2092.1 423.433 2097.42 439.14 2108.06 450.54C2118.95 461.94 2132.25 467.64 2147.96 467.64C2163.16 467.64 2174.68 463.84 2182.54 456.24C2190.64 448.64 2196.09 439.9 2198.88 430.02L2230.42 443.7C2225.35 458.9 2215.72 472.2 2201.54 483.6C2187.6 495 2169.74 500.7 2147.96 500.7C2121.36 500.7 2099.32 491.453 2081.84 472.96C2064.36 454.467 2055.62 431.287 2055.62 403.42C2055.62 375.047 2064.36 351.867 2081.84 333.88C2099.32 315.64 2121.23 306.52 2147.58 306.52C2169.87 306.52 2187.86 312.22 2201.54 323.62C2215.47 335.02 2224.59 348.7 2228.9 364.66L2196.6 378.34C2193.81 367.7 2188.49 358.58 2180.64 350.98C2172.78 343.38 2161.76 339.58 2147.58 339.58ZM2308.04 495H2272.32V219.88H2308.04V495ZM2406.43 451.68C2417.57 463.08 2431.13 468.78 2447.09 468.78C2463.05 468.78 2476.47 463.08 2487.37 451.68C2498.51 440.027 2504.09 423.94 2504.09 403.42C2504.09 383.153 2498.51 367.32 2487.37 355.92C2476.47 344.267 2463.05 338.44 2447.09 338.44C2431.13 338.44 2417.57 344.267 2406.43 355.92C2395.53 367.32 2390.09 383.153 2390.09 403.42C2390.09 423.94 2395.53 440.027 2406.43 451.68ZM2379.83 334.26C2397.56 315.767 2419.98 306.52 2447.09 306.52C2474.19 306.52 2496.49 315.767 2513.97 334.26C2531.7 352.5 2540.57 375.553 2540.57 403.42C2540.57 431.54 2531.83 454.847 2514.35 473.34C2496.87 491.58 2474.45 500.7 2447.09 500.7C2419.73 500.7 2397.31 491.58 2379.83 473.34C2362.35 454.847 2353.61 431.54 2353.61 403.42C2353.61 375.553 2362.35 352.5 2379.83 334.26ZM2704.87 472.96C2700.06 482.08 2692.71 489.047 2682.83 493.86C2672.95 498.42 2662.31 500.7 2650.91 500.7C2630.14 500.7 2613.55 493.86 2601.13 480.18C2588.72 466.247 2582.51 448.64 2582.51 427.36V312.22H2618.23V422.04C2618.23 435.72 2621.53 446.993 2628.11 455.86C2634.95 464.727 2645.47 469.16 2659.65 469.16C2673.84 469.16 2684.61 464.98 2691.95 456.62C2699.3 448.007 2702.97 436.607 2702.97 422.42V312.22H2738.69V461.18C2738.69 473.087 2739.33 484.36 2740.59 495H2706.39C2705.38 489.427 2704.87 482.08 2704.87 472.96ZM2819.07 403.04C2819.07 422.293 2823.76 438 2833.13 450.16C2842.76 462.32 2855.93 468.4 2872.65 468.4C2888.61 468.4 2901.4 462.193 2911.03 449.78C2920.66 437.367 2925.47 421.533 2925.47 402.28C2925.47 383.28 2920.78 367.953 2911.41 356.3C2902.04 344.647 2889.24 338.82 2873.03 338.82C2856.82 338.82 2843.77 344.773 2833.89 356.68C2824.01 368.587 2819.07 384.04 2819.07 403.04ZM2925.85 470.3V467.26C2921.04 476.633 2913.69 484.487 2903.81 490.82C2894.18 496.9 2882.66 499.94 2869.23 499.94C2843.14 499.94 2822.11 490.82 2806.15 472.58C2790.44 454.087 2782.59 430.907 2782.59 403.04C2782.59 376.44 2790.7 353.893 2806.91 335.4C2823.12 316.653 2843.9 307.28 2869.23 307.28C2884.18 307.28 2896.34 310.32 2905.71 316.4C2915.08 322.227 2921.54 329.447 2925.09 338.06V219.88H2960.43V461.18C2960.43 473.593 2961.06 484.867 2962.33 495H2927.75C2926.48 487.907 2925.85 479.673 2925.85 470.3Z" fill="#364148"/>
<path d="M56.4044 83.7914H90.7603C113.363 83.7914 131.445 65.1763 131.445 41.9074V6.53906L56.4044 83.7914Z" fill="#CFCFFF"/>
<path d="M50.2932 93.4201V191.195C50.2932 240.06 50.2932 282.773 50.2932 337.105L217.554 251.648C265.02 251.648 303.445 212.091 303.445 163.226V42.2279C303.445 -6.63664 288.649 0.344827 241.183 0.344827L140.705 0.344827V42.2287C140.705 70.6162 118.553 93.4201 90.9783 93.4201H50.2932Z" fill="#CFCFFF"/>
<path d="M565.486 393.187C565.821 393.186 566.143 393.157 566.452 393.104C566.161 393.01 565.854 392.938 565.53 392.891C565.511 392.888 565.492 392.885 565.473 392.883C564.874 392.8 564.298 392.818 563.755 392.92C564.279 393.091 564.854 393.187 565.473 393.187C565.477 393.187 565.482 393.187 565.486 393.187ZM568.378 290.942L568.384 290.946L568.39 290.95C587.366 304.449 602.498 323.685 610.867 346.789L610.869 346.795C615.466 359.509 618 373.423 618 388.147C618 420.728 605.169 450.3 584.334 471.725C563.523 493.149 534.62 506.523 502.683 506.523H110.937C83.5489 506.523 58.7786 495.155 40.7206 476.732L40.7024 476.714L40.6843 476.695C22.5833 458.061 11.5032 432.553 11.5032 404.469C11.5032 396.652 12.3228 389.148 13.8723 382.024C18.8985 358.853 31.6063 338.94 48.8015 324.853C65.9724 310.765 87.7348 302.417 110.915 302.417C116.28 302.417 121.665 302.862 127.014 303.748C132.431 260.402 152.927 221.867 182.893 193.895L182.896 193.892C213.88 164.991 255.123 147.305 300.391 147.305C340.497 147.305 377.468 161.196 406.907 184.476L411.081 187.777L411.085 187.889C437.622 210.231 457.649 240.457 467.852 275.255C479.358 271.498 491.045 269.722 502.538 269.722C526.505 269.722 549.423 277.494 568.378 290.942Z" fill="#007BFF" stroke="#EEF6FB" stroke-width="23"/>
</svg>
