<svg width="25" height="25" viewBox="0 0 25 25" fill="none" xmlns="http://www.w3.org/2000/svg">
<path fill-rule="evenodd" clip-rule="evenodd" d="M9.82595 1.61453C10.9595 -0.538177 14.0418 -0.538177 15.1751 1.61453L17.2681 5.5918C17.4285 5.89754 17.723 6.11133 18.0636 6.17099L22.4908 6.93911C24.8834 7.35423 25.8344 10.2774 24.1451 12.0215L21.0068 15.258C20.7669 15.5053 20.6551 15.8496 20.7035 16.1914L21.3436 20.6544C21.6891 23.0606 19.1959 24.869 17.0158 23.794L12.9924 21.8116C12.6817 21.6587 12.3188 21.6587 12.0081 21.8116L7.98466 23.794C5.80461 24.8691 3.31111 23.0607 3.65686 20.6544L4.29696 16.1914C4.34544 15.8496 4.23358 15.5053 3.99368 15.258L0.855355 12.0215C-0.834982 10.2777 0.117069 7.35434 2.50966 6.93911L6.93689 6.17099C7.27745 6.11133 7.572 5.89757 7.73234 5.5918L9.82595 1.61453ZM13.4864 2.50443C13.0687 1.71022 11.9327 1.71022 11.5151 2.50443L9.42207 6.48037C8.98581 7.31061 8.18787 7.89105 7.2644 8.05139L2.83585 8.81951C1.95465 8.97238 1.60414 10.05 2.22682 10.6913L5.36515 13.9291C6.01641 14.6002 6.31969 15.5361 6.18669 16.4621L5.54659 20.9251C5.41982 21.8113 6.33831 22.4775 7.14124 22.0823L11.1646 20.0986C12.0073 19.6835 12.9942 19.6835 13.8368 20.0986L17.8602 22.0823C18.6631 22.4775 19.5816 21.8113 19.4549 20.9251L18.8148 16.4621C18.6818 15.5361 18.9851 14.6002 19.6363 13.9291L22.7746 10.6913C23.3973 10.05 23.0469 8.97239 22.1656 8.81951L17.7371 8.05139C16.8136 7.89106 16.0157 7.31061 15.5794 6.48037L13.4864 2.50443Z" fill="#6E6E73"/>
</svg>
