<svg width="27" height="23" viewBox="0 0 27 23" fill="none" xmlns="http://www.w3.org/2000/svg">
<path d="M0.85 3.54496V7.51199L0.850375 19.7872C0.850375 21.2172 2.04018 22.4071 3.47034 22.4071H23.6048C25.0409 22.4071 26.15 21.2112 26.15 19.7872V7.58671C26.15 6.1627 25.0409 4.96675 23.6048 4.96675H16.1016L11.7314 1.11502C11.6487 1.03288 11.56 0.965389 11.4558 0.919068C11.3495 0.871814 11.2346 0.85 11.1048 0.85H3.54496C2.03986 0.85 0.85 2.04002 0.85 3.54496ZM3.54475 2.42248H10.8233L13.7023 4.96681L3.46988 4.96675C3.0894 4.96675 2.75201 5.01868 2.42231 5.16811V3.54492C2.42231 2.95411 2.95394 2.42248 3.54475 2.42248ZM2.42248 19.7872V7.58678C2.42248 6.99596 2.87923 6.53921 3.47005 6.53921H23.6045C24.1266 6.53921 24.6521 7.00192 24.6521 7.58678V19.7872C24.6521 20.3721 24.1266 20.8348 23.6045 20.8348H3.47005C2.87923 20.8348 2.42248 20.378 2.42248 19.7872Z" fill="#6E6E73" stroke="#6E6E73" stroke-width="0.3"/>
</svg>
