<svg width="25" height="20" viewBox="0 0 25 20" fill="none" xmlns="http://www.w3.org/2000/svg">
<path d="M21.5275 7.0356e-05H8.88741C7.96186 0.0013125 7.07451 0.369455 6.41989 1.02408C5.76543 1.67854 5.39715 2.56589 5.39588 3.4916V4.12603H3.01096V4.12587C2.04006 4.07976 1.10254 4.48687 0.473399 5.22783C0.0327448 5.79766 -0.110708 6.54311 0.0870901 7.23593L2.64842 16.976C3.04435 18.4737 4.80431 19.6422 6.65032 19.6422H21.9615V19.6088H21.9617C22.8009 19.498 23.5715 19.0863 24.1303 18.4504C24.689 17.8144 24.9981 16.9974 25 16.1507V3.49153C24.9988 2.56908 24.6333 1.68467 23.9828 1.03069C23.3324 0.3767 22.4499 0.00624055 21.5275 0L21.5275 7.0356e-05ZM4.30359 16.5324L1.72318 6.7971C1.66604 6.61932 1.69989 6.42492 1.8137 6.27711C2.12408 5.9675 2.55509 5.81038 2.99189 5.84778H12.1977C13.3616 5.84778 14.3681 6.58234 14.5444 7.24054L15.7797 11.9007L17.125 16.9758C17.2234 17.3206 17.3852 17.6441 17.602 17.9298H6.6504C5.48652 17.9298 4.48004 17.1952 4.30352 16.5322L4.30359 16.5324ZM23.3067 16.1318H23.3068C23.3119 16.6069 23.1267 17.0643 22.7924 17.4022C22.4583 17.7399 22.0029 17.9299 21.5276 17.9299H21.127C19.9632 17.9299 18.9567 17.1954 18.7803 16.5372L17.1203 10.2553L16.2045 6.79233C15.8086 5.2946 14.0487 4.12607 12.2026 4.12607L7.10845 4.12591V3.49164C7.10845 3.01978 7.29586 2.56717 7.62952 2.23352C7.96318 1.89986 8.41563 1.71245 8.88749 1.71245H21.5276C21.9994 1.71245 22.4521 1.89986 22.7857 2.23352C23.1194 2.56719 23.3068 3.01978 23.3068 3.49164L23.3067 16.1318Z" fill="#40545E"/>
</svg>
