<svg width="25" height="22" viewBox="0 0 25 22" fill="none" xmlns="http://www.w3.org/2000/svg">
<path d="M24.6265 8.96714L14.1204 0.57276C13.1797 -0.190366 11.8179 -0.190366 10.8837 0.56944L0.370996 8.96711C-0.0533283 9.30589 -0.125721 9.92757 0.21638 10.3552C0.555154 10.7796 1.17684 10.852 1.60451 10.5099L2.63404 9.68752V18.6773C2.63404 20.0983 3.78863 21.2528 5.20962 21.2528H7.95292C9.37392 21.2528 10.5285 20.0983 10.5285 18.6773L10.5286 13.9571C10.5286 13.6248 10.7983 13.3551 11.1306 13.3551H13.8739C14.2061 13.3551 14.4759 13.6248 14.4759 13.9571V18.674C14.4759 20.095 15.6304 21.2496 17.0514 21.2496H19.7947C21.2157 21.2496 22.3703 20.095 22.3703 18.674V9.68752L23.3999 10.5099C23.5808 10.6546 23.7979 10.727 24.015 10.727C24.3044 10.727 24.5906 10.5987 24.788 10.3553C25.1234 9.92758 25.0544 9.30922 24.6268 8.9671L24.6265 8.96714ZM20.3932 18.6773C20.3932 19.0095 20.1235 19.2792 19.7912 19.2792H17.0479C16.7156 19.2792 16.4459 19.0095 16.4459 18.6773V13.9571C16.4459 12.5361 15.2913 11.3815 13.8703 11.3815H11.127C9.70604 11.3815 8.55146 12.5361 8.55146 13.9571V18.674C8.55146 19.0062 8.28174 19.2759 7.94949 19.2759H5.20618C4.87393 19.2759 4.60421 19.0062 4.60421 18.674V8.11191L12.1203 2.10559C12.3407 1.92795 12.6598 1.92795 12.8835 2.10891L20.393 8.11194L20.3932 18.6773Z" fill="#6E6E73"/>
</svg>
