<svg width="24" height="20" viewBox="0 0 24 20" fill="none" xmlns="http://www.w3.org/2000/svg">
<path d="M23.15 14.5C23.15 11.9337 21.0663 9.85 18.5 9.85C15.9337 9.85 13.85 11.9337 13.85 14.5C13.85 17.0663 15.9337 19.15 18.5 19.15C21.0663 19.15 23.15 17.0663 23.15 14.5ZM14.7929 14.5C14.7929 12.4542 16.4542 10.7929 18.5 10.7929C20.5458 10.7929 22.2071 12.4542 22.2071 14.5C22.2071 16.5458 20.5458 18.2071 18.5 18.2071C16.4542 18.2071 14.7929 16.5458 14.7929 14.5Z" fill="#40545E" stroke="#40545E" stroke-width="0.3"/>
<path d="M22.7939 12.3401C22.7939 12.7461 22.4649 11.7902 22.0588 11.7902C21.6528 11.7902 21.3236 11.461 21.3236 11.055V5.51289C21.3236 4.70355 20.6633 4.04406 19.8505 4.04406H12.1293C11.4633 4.04406 10.7265 3.61706 10.3952 3.03739L9.65173 1.73621C9.58224 1.61462 9.33296 1.4705 9.18949 1.4705H2.93908C2.12796 1.4705 1.47066 2.12781 1.47066 2.93877V16.1777C1.47066 16.9873 2.13075 17.6469 2.94333 17.6469H16.1764C16.5825 17.6469 16.9118 17.9761 16.9118 18.3822C16.9118 18.7883 17.5151 19.1175 17.109 19.1175H2.94333C1.31881 19.1175 0 17.7998 0 16.1777V2.93875C0 1.31562 1.31575 0 2.93895 0H9.18936C9.85969 0 10.5967 0.42602 10.9284 1.00658L11.6719 2.30785C11.7412 2.42902 11.9905 2.57347 12.1291 2.57347H19.8504C21.4749 2.57347 22.7939 3.89101 22.7939 5.51285V12.3401Z" fill="#40545E"/>
<path d="M19.3497 13.044C19.224 12.9209 19.224 12.7173 19.3497 12.5942C19.4728 12.4686 19.6763 12.4686 19.7995 12.5942L21.4077 14.1999C21.5308 14.3256 21.5308 14.5266 21.4077 14.6522L19.7995 16.2579C19.6763 16.3836 19.4728 16.3836 19.3497 16.2579C19.224 16.1348 19.224 15.9313 19.3497 15.8081L20.4101 14.7452H15.8191C15.6432 14.7452 15.5 14.602 15.5 14.4261C15.5 14.2502 15.6432 14.107 15.8191 14.107H20.4101L19.3497 13.044Z" fill="#40545E"/>
</svg>
