<svg width="512" height="434" viewBox="0 0 512 434" fill="none" xmlns="http://www.w3.org/2000/svg">
<path d="M17.3215 34.6431H58.2003C62.2527 34.5613 66.2053 35.9033 69.3703 38.4352C72.5352 40.9672 74.7121 44.5289 75.5219 48.5003L86.6077 107.393L103.929 194.001L133.376 339.329C135.737 351.098 142.099 361.687 151.382 369.297C160.666 376.907 172.297 381.068 184.301 381.074H450.36C454.954 381.074 459.36 379.249 462.608 376C465.856 372.752 467.681 368.346 467.681 363.752C467.681 359.158 465.856 354.752 462.608 351.504C459.36 348.256 454.954 346.431 450.36 346.431H184.301C180.249 346.512 176.296 345.17 173.131 342.638C169.966 340.106 167.789 336.545 166.98 332.573L159.705 294.466H439.274C451.278 294.46 462.909 290.299 472.193 282.689C481.476 275.08 487.839 264.49 490.199 252.721L510.985 148.792C512.497 141.253 512.318 133.473 510.459 126.013C508.601 118.552 505.11 111.597 500.239 105.648C495.367 99.6995 489.237 94.9062 482.289 91.6136C475.341 88.321 467.749 86.6113 460.06 86.6077H118.133L109.126 41.7449C106.765 29.9756 100.402 19.3865 91.119 11.7767C81.8357 4.16686 70.2041 0.00564693 58.2003 0H17.3215C12.7276 0 8.32178 1.82494 5.07336 5.07336C1.82494 8.32178 0 12.7276 0 17.3215C0 21.9155 1.82494 26.3213 5.07336 29.5697C8.32178 32.8181 12.7276 34.6431 17.3215 34.6431ZM460.06 121.251C462.658 121.198 465.234 121.731 467.598 122.809C469.963 123.887 472.054 125.484 473.717 127.48C475.381 129.476 476.574 131.821 477.208 134.341C477.842 136.86 477.902 139.491 477.381 142.037L456.596 245.966C455.786 249.937 453.609 253.499 450.444 256.031C447.279 258.563 443.326 259.905 439.274 259.823H152.776L133.722 164.555L125.061 121.251H460.06Z" fill="#424242"/>
<path d="M190.54 207.862H415.72C420.314 207.862 424.72 206.037 427.968 202.788C431.217 199.54 433.042 195.134 433.042 190.54C433.042 185.946 431.217 181.541 427.968 178.292C424.72 175.044 420.314 173.219 415.72 173.219H190.54C185.946 173.219 181.541 175.044 178.292 178.292C175.044 181.541 173.219 185.946 173.219 190.54C173.219 195.134 175.044 199.54 178.292 202.788C181.541 206.037 185.946 207.862 190.54 207.862Z" fill="#424242"/>
<path d="M190.54 433.042C200.107 433.042 207.862 425.286 207.862 415.72C207.862 406.154 200.107 398.398 190.54 398.398C180.974 398.398 173.219 406.154 173.219 415.72C173.219 425.286 180.974 433.042 190.54 433.042Z" fill="#424242"/>
<path d="M433.04 433.042C442.607 433.042 450.362 425.286 450.362 415.72C450.362 406.154 442.607 398.398 433.04 398.398C423.474 398.398 415.719 406.154 415.719 415.72C415.719 425.286 423.474 433.042 433.04 433.042Z" fill="#424242"/>
</svg>
