<svg width="25" height="25" viewBox="0 0 25 25" fill="none" xmlns="http://www.w3.org/2000/svg">
<path d="M7.28842 7.33488L4.52915 5.58193H4.52924C5.93902 3.95714 7.81166 2.80207 9.89638 2.27105C11.981 1.74017 14.1781 1.85899 16.1934 2.61158C18.2086 3.36417 19.9457 4.71455 21.1721 6.48196C22.3985 8.24937 23.0556 10.3491 23.0553 12.5003C23.1106 15.3227 22.0427 18.0517 20.0866 20.0868C18.0973 22.1541 15.3685 23.3468 12.5 23.4028C9.58539 23.458 6.76825 22.3535 4.66779 20.3322C2.53544 18.2777 1.30597 15.4604 1.24996 12.5H0.694399C0.639332 15.654 1.83887 18.7007 4.02936 20.9706C6.25321 23.2724 9.29997 24.5968 12.5 24.6528C15.746 24.7079 18.881 23.4717 21.2162 21.2162C23.5831 18.9274 24.944 15.7922 25 12.5C25.0008 9.9278 24.2078 7.41807 22.7292 5.31321C21.2507 3.20843 19.1586 1.61111 16.7387 0.739354C14.3188 -0.132222 11.6887 -0.235949 9.20766 0.442687C6.72663 1.12121 4.51529 2.54889 2.8757 4.53089L0 2.70389L1.32894 8.66363L7.28842 7.33488Z" fill="#40545E"/>
<path d="M15.9427 6.27344L12.5527 11.1998C12.5351 11.1991 12.5186 11.1946 12.5009 11.1946V11.1947C12.1208 11.194 11.7595 11.3592 11.5115 11.647C11.2633 11.9348 11.1532 12.3166 11.2099 12.6923C11.2665 13.0679 11.4843 13.4003 11.8064 13.6021V21.6669H13.1952V13.6021C13.4592 13.4373 13.6552 13.1834 13.7477 12.8864C13.8402 12.5894 13.823 12.269 13.6993 11.9835L17.0868 7.06037L15.9427 6.27344Z" fill="#40545E"/>
</svg>
