<svg width="25" height="24" viewBox="0 0 25 24" fill="none" xmlns="http://www.w3.org/2000/svg">
<path fill-rule="evenodd" clip-rule="evenodd" d="M4.46433 2.42979V5.35734H2.67871C1.1992 5.35734 0 6.55654 0 8.03605V16.0716C0 17.5511 1.1992 18.7501 2.67871 18.7501H4.46433V20.7849L2.39648 21.4743C1.92862 21.6305 1.67591 22.1368 1.8313 22.6036C1.98755 23.0715 2.49379 23.3242 2.96079 23.1688L5.35726 22.3696L7.75359 23.1688C8.22058 23.3241 8.72682 23.0715 8.88307 22.6036C9.03844 22.1368 8.78575 21.6305 8.3179 21.4743L6.25004 20.7849V18.7501H22.3214C23.8009 18.7501 25 17.5511 25 16.0716V8.03605C25 6.55654 23.8009 5.35734 22.3214 5.35734H6.25004V2.42979L8.3179 1.74041C8.78576 1.58416 9.03846 1.07792 8.88307 0.610925C8.72682 0.143062 8.22058 -0.109489 7.75359 0.0457469L5.35726 0.844876L2.96079 0.0457469C2.49379 -0.10947 1.98756 0.14307 1.8313 0.610925C1.67594 1.07792 1.92862 1.58415 2.39648 1.74041L4.46433 2.42979ZM4.46433 7.14319V16.9647H2.67871C2.18574 16.9647 1.78582 16.5646 1.78582 16.0718V8.03631C1.78582 7.54334 2.18574 7.14342 2.67871 7.14342L4.46433 7.14319ZM6.24996 7.14319H22.3214C22.8143 7.14319 23.2143 7.54312 23.2143 8.03608V16.0716C23.2143 16.5644 22.8143 16.9645 22.3214 16.9645H6.24996V7.14319Z" fill="#40545E"/>
</svg>
