<svg width="25" height="25" viewBox="0 0 25 25" fill="none" xmlns="http://www.w3.org/2000/svg">
<path d="M19.0863 3.39902V3.40024H19.0887C19.1804 3.40024 19.272 3.43566 19.3391 3.50406L22.6991 6.86399C22.7687 6.93361 22.8029 7.02522 22.8029 7.11682C22.8029 7.20842 22.7687 7.30002 22.6991 7.36964L19.3404 10.7296C19.2708 10.798 19.1804 10.8334 19.0864 10.8334C19.0412 10.8334 18.9936 10.8248 18.9496 10.8065C18.8165 10.7516 18.7285 10.6209 18.7285 10.4755C18.7346 10.0505 18.7359 10.0175 18.7359 10.0175C18.7407 9.88683 18.7175 9.76103 18.6699 9.64867L18.6687 9.64623C18.5441 9.33356 18.2375 9.11737 17.8821 9.11737H17.8772L17.4937 9.10271L17.4424 9.10149L17.032 9.11126L16.9807 9.1137L16.5715 9.14668L16.5202 9.15279L16.1148 9.21019L16.0635 9.21874L15.6616 9.3018L15.6116 9.31279L15.2146 9.41905L15.1658 9.4337L14.7761 9.56317L14.7273 9.58027L14.3474 9.73294L14.2998 9.75371L13.9285 9.92836L13.8821 9.95157L13.523 10.1482L13.4705 10.1787L13.0186 10.4682C12.999 10.4804 12.9807 10.4939 12.9624 10.5073L12.5337 10.8322C12.5166 10.8456 12.4983 10.8603 12.4812 10.8749L12.0793 11.2316C12.0635 11.2462 12.0464 11.2621 12.0305 11.2792L11.658 11.6664C11.6421 11.6823 11.6274 11.6994 11.6128 11.7165L11.272 12.1317C11.2574 12.1488 11.2439 12.1672 11.2305 12.1855L10.9227 12.6264C10.9105 12.6447 10.8983 12.6643 10.8861 12.6838L10.6149 13.1467C10.6027 13.1663 10.5917 13.187 10.5819 13.2066L10.3474 13.6902C10.3377 13.711 10.3279 13.7318 10.3206 13.7525L10.1239 14.2521C10.1154 14.2741 10.1081 14.2948 10.1007 14.3168L9.94439 14.831C9.93828 14.853 9.93218 14.8737 9.92729 14.8969L9.84057 15.2878L9.70378 14.7992L9.5792 14.1604L9.50958 13.5143L9.49248 12.8658L9.5279 12.2172L9.61828 11.5735L9.76119 10.9396L9.95539 10.3204L10.2009 9.71827L10.494 9.1381L10.8348 8.58483L11.2195 8.06209L11.6458 7.57231L12.1123 7.11917L12.6131 6.70634L13.1505 6.33381L13.5694 6.08587L14.0055 5.86358L14.4549 5.66816L14.9154 5.50083L15.3869 5.36404L15.8632 5.25534L16.3481 5.17717L16.8354 5.12831L17.3252 5.11121C17.8577 5.12465 17.865 5.12465 17.865 5.12465C18.3328 5.12465 18.7188 4.75212 18.731 4.28189C18.7322 4.26235 18.7285 3.7567 18.7285 3.7567C18.7285 3.61258 18.8165 3.48189 18.9496 3.42694C18.9936 3.40861 19.04 3.39884 19.0864 3.39884L19.0863 3.39902ZM17.882 0V0.00122138H17.8796C17.6634 0.00122138 17.4472 0.0830531 17.2823 0.247941V0.249163C17.1199 0.411607 17.0368 0.622911 17.0344 0.83665C17.0344 0.840314 17.0319 3.38934 17.0319 3.38934L16.7461 3.39911L16.6924 3.40278L16.1513 3.45529L16.0976 3.46262L15.5602 3.54934L15.5076 3.55911L14.9763 3.68003L14.925 3.69346L14.4023 3.84613L14.351 3.86323L13.8392 4.04888L13.7891 4.06843L13.2908 4.28461L13.242 4.30782L12.7571 4.55454L12.7095 4.58141L12.2417 4.85744C12.2234 4.86844 12.2063 4.87943 12.1892 4.89164L11.5968 5.30325C11.576 5.31669 11.5577 5.33134 11.5394 5.346L10.9824 5.80524C10.9641 5.8199 10.9458 5.83577 10.9287 5.85287L10.4121 6.35487C10.395 6.37197 10.3791 6.38907 10.3632 6.40739L9.8893 6.95089C9.87342 6.96921 9.85876 6.98753 9.8441 7.00707L9.41785 7.58724C9.4032 7.60678 9.38976 7.62632 9.37755 7.64709L8.99893 8.26144C8.98671 8.2822 8.97572 8.30297 8.96473 8.32373L8.63861 8.96739C8.62762 8.98815 8.61784 9.01014 8.60929 9.03213L8.33693 9.70023C8.32838 9.72222 8.31983 9.7442 8.3125 9.76741L8.09754 10.4551C8.09021 10.4783 8.0841 10.5015 8.078 10.5247L7.92044 11.2282C7.91433 11.2514 7.91067 11.2746 7.907 11.299L7.80685 12.0135C7.80441 12.0367 7.80196 12.0599 7.80074 12.0844L7.76044 12.8038C7.75799 12.8282 7.75799 12.8514 7.75921 12.8758L7.77754 13.5964C7.77876 13.6209 7.77998 13.6441 7.78242 13.6685L7.86059 14.3855C7.86303 14.4087 7.8667 14.4319 7.87158 14.4551L8.00838 15.1635C8.01326 15.1867 8.01937 15.2099 8.02548 15.2331L8.2209 15.9281C8.227 15.9501 8.23433 15.9733 8.24288 15.9952L8.49448 16.6719C8.50303 16.6939 8.51158 16.7159 8.52258 16.7379L8.82915 17.3901C8.83892 17.412 8.84992 17.4328 8.86213 17.4536L9.22121 18.0789C9.23342 18.0997 9.24564 18.1192 9.25907 18.14L9.66945 18.7336C9.68289 18.7531 9.69632 18.7714 9.7122 18.7898L10.169 19.3479C10.3314 19.5458 10.5769 19.6655 10.8383 19.6655C10.9104 19.6655 10.9837 19.6557 11.0557 19.6374C11.5186 19.5177 11.7971 19.0451 11.6774 18.5821L11.5516 18.0948L11.4698 17.6319L11.4258 17.1653L11.4172 16.6951L11.4453 16.2273L11.5101 15.762L11.6114 15.304L11.7482 14.8545L11.9205 14.4185L12.1256 13.9959L12.3626 13.5904L12.6325 13.2056L12.9293 12.8429L13.2554 12.5046L13.606 12.1931L13.9809 11.9098L14.3803 11.6545L14.6906 11.4847L15.0142 11.3321L15.3477 11.1989L15.6872 11.0866L16.0329 10.9937L16.3846 10.9229L16.7388 10.8716L17.0344 10.8484L17.0332 13.3864C17.0332 13.6038 17.1162 13.82 17.2811 13.9861C17.4472 14.151 17.6634 14.2341 17.8808 14.2341C18.097 14.2341 18.3144 14.151 18.4793 13.9861L24.7521 7.7191C24.9133 7.55788 24.9951 7.35025 25 7.14016V7.1084C25 7.04001 24.9914 6.97161 24.9731 6.90443L24.9719 6.89955C24.9365 6.76031 24.8632 6.62596 24.7521 6.51603L18.4801 0.24797C18.3152 0.0830847 18.0978 3.10116e-05 17.8816 3.10116e-05L17.882 0ZM9.88332 1.43267H2.20093C0.997871 1.4461 0.0244406 2.41345 0 3.61284V22.7591C0.0244276 23.9585 0.997871 24.9246 2.20093 24.9393H21.3034C22.5065 24.9259 23.4799 23.9585 23.5044 22.7591L23.5056 15.0546C23.5056 14.588 23.127 14.2094 22.6604 14.2094H22.6592L22.658 14.2082C22.1914 14.2082 21.8115 14.5868 21.8115 15.0546V22.7177C21.8091 23.0096 21.5709 23.2453 21.2778 23.2465H2.22663C1.9335 23.2453 1.69532 23.0096 1.69289 22.7164V3.65562C1.69534 3.36249 1.93351 3.12676 2.22663 3.12554H9.88348V3.12676C10.3513 3.12676 10.7299 2.74691 10.7299 2.27913C10.7299 1.81134 10.3513 1.43272 9.88348 1.43272L9.88332 1.43267Z" fill="#40545E"/>
</svg>
