<svg width="27" height="35" viewBox="0 0 27 35" fill="none" xmlns="http://www.w3.org/2000/svg">
<path d="M0.85 34.4034V34.5534H1H26H26.15V34.4034V1V0.85H26H9.47899H9.41686L9.37293 0.893934L0.893934 9.37293L0.85 9.41686V9.47899V34.4034ZM10.2256 10.0756V1.99034H25.0097V33.413H1.99034V10.2256H10.0756H10.2256V10.0756ZM2.79491 9.0853L9.08529 2.79491V9.0853H2.79491Z" fill="#40545E" stroke="#40545E" stroke-width="0.3"/>
<path d="M7.04526 22.6016C5.44246 22.6042 3.90737 23.2419 2.77382 24.3754C1.64028 25.5089 1.00266 27.0441 1 28.6468C1.33407 36.6543 12.7566 36.6594 13.0852 28.6468C13.0839 27.0454 12.4475 25.5089 11.3154 24.3754C10.1832 23.2418 8.6467 22.6042 7.04534 22.6016H7.04526ZM9.58004 28.0159C9.37322 28.2214 9.03914 28.2214 8.83232 28.0159L7.57552 26.7008V31.9508C7.57552 32.2437 7.33822 32.481 7.04523 32.481C6.75225 32.481 6.51494 32.2437 6.51494 31.9508V26.7008L5.25814 28.0159C5.05663 28.228 4.71991 28.2359 4.50779 28.0344C4.29568 27.8329 4.28772 27.4962 4.48923 27.2841L6.6422 25.0303C6.68993 24.9733 6.74959 24.9283 6.8172 24.8978C7.03329 24.7944 7.2918 24.8487 7.44823 25.0303L9.6012 27.2841C9.79078 27.4949 9.7815 27.817 9.57999 28.0159L9.58004 28.0159Z" fill="#40545E"/>
</svg>
