<svg width="25" height="35" viewBox="0 0 25 35" fill="none" xmlns="http://www.w3.org/2000/svg">
<path d="M24.9999 10.0045C25.0033 9.08945 24.5878 8.20495 23.8316 7.51786C23.0756 6.83078 22.0314 6.38871 20.8956 6.27488C19.7599 6.16101 18.6113 6.38328 17.6665 6.8999C16.7218 7.41639 16.046 8.19155 15.7668 9.07905C15.4875 9.96642 15.6238 10.9049 16.1504 11.7174C16.6769 12.5301 17.5571 13.1604 18.625 13.4899C18.3322 14.9531 17.3983 16.2855 15.9899 17.249C14.5817 18.2123 12.7909 18.7442 10.9375 18.7492C9.24561 18.742 7.598 19.181 6.25001 19.9985V7.28117C7.65137 6.88504 8.73469 5.98106 9.16973 4.84474C9.60477 3.70833 9.33997 2.47444 8.45603 1.51902C7.57208 0.563593 6.17384 0 4.68752 0C3.2012 0 1.80297 0.563593 0.919018 1.51902C0.0350675 2.47444 -0.229722 3.70833 0.205316 4.84474C0.640354 5.98102 1.72368 6.88504 3.12504 7.28117V27.7188C1.72368 28.115 0.640354 29.0189 0.205316 30.1553C-0.229722 31.2917 0.0350718 32.5256 0.919018 33.481C1.80297 34.4364 3.2012 35 4.68752 35C6.17384 35 7.57208 34.4364 8.45603 33.481C9.33998 32.5256 9.60477 31.2917 9.16973 30.1553C8.73469 29.019 7.65137 28.115 6.25001 27.7188V24.9955C6.25001 24.0015 6.74384 23.0482 7.62287 22.3454C8.50194 21.6425 9.69431 21.2477 10.9375 21.2477C13.6269 21.263 16.2291 20.4853 18.247 19.0634C20.2645 17.6414 21.5562 15.6751 21.875 13.5401C22.7894 13.2816 23.5809 12.8027 24.1405 12.1697C24.7002 11.5364 25.0005 10.78 25 10.0047L24.9999 10.0045ZM4.68761 2.50905C5.10199 2.50905 5.49943 2.64061 5.79243 2.87496C6.08556 3.1092 6.25009 3.42696 6.25009 3.7583C6.25009 4.08963 6.08554 4.40737 5.79243 4.64163C5.49947 4.876 5.10202 5.00754 4.68761 5.00754C4.27319 5.00754 3.87578 4.87598 3.58278 4.64163C3.28965 4.4074 3.12512 4.08963 3.12512 3.7583C3.12512 3.42696 3.28967 3.10922 3.58278 2.87496C3.87575 2.6406 4.27319 2.50905 4.68761 2.50905ZM4.68761 32.4909C4.27322 32.4909 3.87578 32.3594 3.58278 32.125C3.28965 31.8908 3.12512 31.573 3.12512 31.2417C3.12512 30.9104 3.28967 30.5926 3.58278 30.3584C3.87575 30.124 4.27319 29.9925 4.68761 29.9925C5.10202 29.9925 5.49943 30.124 5.79243 30.3584C6.08556 30.5926 6.25009 30.9104 6.25009 31.2417C6.25009 31.573 6.08554 31.8908 5.79243 32.125C5.49947 32.3594 5.10202 32.4909 4.68761 32.4909ZM20.3125 11.2538C19.8981 11.2538 19.5006 11.1222 19.2076 10.8879C18.9145 10.6536 18.75 10.3359 18.75 10.0045C18.75 9.67319 18.9145 9.35545 19.2076 9.12119C19.5006 8.88683 19.898 8.75528 20.3125 8.75528C20.7269 8.75528 21.1243 8.88684 21.4173 9.12119C21.7104 9.35543 21.8749 9.67319 21.8749 10.0045C21.8749 10.3359 21.7104 10.6536 21.4173 10.8879C21.1243 11.1222 20.7269 11.2538 20.3125 11.2538Z" fill="#40545E"/>
</svg>
