<svg width="25" height="30" viewBox="0 0 25 30" fill="none" xmlns="http://www.w3.org/2000/svg">
<path d="M3.81845 0H21.1815C22.2329 0 23.1882 0.429057 23.8796 1.12045C24.5709 1.81184 25 2.76714 25 3.81845V25.451C25 26.5023 24.5709 27.4576 23.8796 28.149C23.1882 28.8404 22.2329 29.2694 21.1815 29.2694H3.81845C2.76714 29.2694 1.81184 28.8404 1.12045 28.149C0.429057 27.4576 0 26.5023 0 25.451V3.81845C0 2.76714 0.429057 1.81184 1.12045 1.12045C1.81184 0.429057 2.76714 0 3.81845 0ZM10.7367 24.4114C10.3775 24.4114 10.0861 24.1199 10.0861 23.7608C10.0861 23.4016 10.3776 23.1102 10.7367 23.1102H16.12C16.4792 23.1102 16.7706 23.4017 16.7706 23.7608C16.7706 24.12 16.479 24.4114 16.12 24.4114H10.7367ZM10.7367 16.739C10.3775 16.739 10.0861 16.4474 10.0861 16.0883C10.0861 15.7291 10.3776 15.4377 10.7367 15.4377H16.12C16.4792 15.4377 16.7706 15.7293 16.7706 16.0883C16.7706 16.4475 16.479 16.739 16.12 16.739H10.7367ZM10.7367 21.5033C10.3775 21.5033 10.0861 21.2117 10.0861 20.8526C10.0861 20.4934 10.3776 20.202 10.7367 20.202H21.5032C21.8624 20.202 22.1539 20.4935 22.1539 20.8526C22.1539 21.2118 21.8623 21.5033 21.5032 21.5033H10.7367ZM10.7367 13.8311C10.3775 13.8311 10.0861 13.5395 10.0861 13.1804C10.0861 12.8213 10.3776 12.5298 10.7367 12.5298H21.5032C21.8624 12.5298 22.1539 12.8214 22.1539 13.1804C22.1539 13.5396 21.8623 13.8311 21.5032 13.8311H10.7367ZM5.08107 19.3664H6.4919C7.10494 19.3664 7.66346 19.6176 8.06861 20.0221C8.47534 20.4266 8.72654 20.9858 8.72654 21.6008V23.012C8.72654 23.627 8.47533 24.1862 8.07084 24.5908L8.0305 24.6276C7.62876 25.0105 7.08599 25.2464 6.49181 25.2464H5.08098C4.4675 25.2464 3.90942 24.9951 3.50426 24.5907C3.09754 24.1862 2.84634 23.6269 2.84634 23.0119V21.6007C2.84634 20.9858 3.09755 20.4265 3.50204 20.022L3.54238 19.9851C3.94412 19.6022 4.48656 19.3664 5.08107 19.3664ZM6.4919 20.6677H5.08107C4.836 20.6677 4.61169 20.7626 4.44494 20.9166L4.42154 20.9416C4.2529 21.1103 4.14769 21.3442 4.14769 21.6007V23.0119C4.14769 23.2685 4.25291 23.5024 4.42154 23.671C4.58944 23.84 4.82371 23.9449 5.08106 23.9449H6.49189C6.73739 23.9449 6.96128 23.85 7.12803 23.696L7.15142 23.671C7.32006 23.5024 7.42527 23.2684 7.42527 23.0119V21.6007C7.42527 21.3441 7.32005 21.1102 7.15142 20.9416C6.98352 20.7726 6.74968 20.6677 6.4919 20.6677ZM5.08107 11.6939H6.4919C7.10494 11.6939 7.66346 11.9451 8.06861 12.3496C8.47534 12.7541 8.72654 13.3134 8.72654 13.9287V15.3395C8.72654 15.9549 8.47533 16.5141 8.07084 16.9185L8.0305 16.9554C7.62876 17.3383 7.08599 17.5741 6.49181 17.5741H5.08098C4.46561 17.5741 3.90633 17.3229 3.50193 16.9184C3.09743 16.5139 2.84623 15.9547 2.84623 15.3394V13.9286C2.84623 13.3132 3.09744 12.7539 3.50193 12.3495C3.90644 11.945 4.46569 11.6938 5.08098 11.6938L5.08107 11.6939ZM6.4919 12.9953H5.08107C4.82414 12.9953 4.59019 13.1005 4.42155 13.2691C4.2529 13.4378 4.1477 13.6717 4.1477 13.9287V15.3395C4.1477 15.5964 4.25292 15.8304 4.42155 15.999C4.59017 16.1677 4.82413 16.2729 5.08107 16.2729H6.4919C6.73739 16.2729 6.96128 16.178 7.12803 16.024L7.15143 15.999C7.32007 15.8304 7.42528 15.5964 7.42528 15.3395V13.9287C7.42528 13.6717 7.32005 13.4378 7.15143 13.2691C6.98353 13.1002 6.74968 12.9953 6.4919 12.9953ZM10.7367 9.06678C10.3775 9.06678 10.086 8.77524 10.086 8.41615C10.086 8.05696 10.3776 7.76552 10.7367 7.76552H16.1199C16.4791 7.76552 16.7706 8.05707 16.7706 8.41615C16.7706 8.77534 16.479 9.06678 16.1199 9.06678H10.7367ZM10.7367 6.15889C10.3775 6.15889 10.086 5.86734 10.086 5.50825C10.086 5.14906 10.3776 4.85762 10.7367 4.85762H21.5032C21.8624 4.85762 22.1538 5.14917 22.1538 5.50825C22.1538 5.86745 21.8623 6.15889 21.5032 6.15889H10.7367ZM5.08104 4.02206H6.49187C7.10492 4.02206 7.66343 4.27327 8.06859 4.67776C8.47531 5.08226 8.72651 5.64151 8.72651 6.25648V7.66771C8.72651 8.28265 8.4753 8.84193 8.07081 9.24643L8.03047 9.28327C7.62874 9.66618 7.08596 9.90204 6.49178 9.90204H5.08095C4.46747 9.90204 3.90939 9.65083 3.50424 9.24634C3.09751 8.84183 2.84632 8.28258 2.84632 7.66762V6.25638C2.84632 5.64144 3.09752 5.08216 3.50202 4.67766L3.54235 4.64082C3.94409 4.25791 4.48654 4.02206 5.08104 4.02206ZM6.49187 5.32343H5.08104C4.83597 5.32343 4.61166 5.41828 4.44491 5.57231L4.42151 5.59729C4.25287 5.76593 4.14766 5.99987 4.14766 6.25638V7.66762C4.14766 7.92423 4.25289 8.15809 4.42151 8.32671C4.58941 8.49566 4.82369 8.60056 5.08103 8.60056H6.49187C6.73736 8.60056 6.96125 8.50571 7.128 8.35168L7.15139 8.32669C7.32003 8.15805 7.42525 7.92411 7.42525 7.66761V6.25637C7.42525 5.99976 7.32002 5.7659 7.15139 5.59728C6.9835 5.42832 6.74965 5.32343 6.49187 5.32343ZM21.1818 1.30143H3.81867C3.1257 1.30143 2.49583 1.58449 2.0403 2.04003C1.58476 2.49556 1.3017 3.12554 1.3017 3.8184V25.4509C1.3017 26.1439 1.58476 26.7738 2.0403 27.2293C2.49583 27.6848 3.12581 27.9679 3.81867 27.9679H21.1818C21.8747 27.9679 22.5046 27.6848 22.9601 27.2293C23.4157 26.7738 23.6987 26.1438 23.6987 25.4509V3.8184C23.6987 3.12543 23.4157 2.49556 22.9601 2.04003C22.5046 1.58449 21.8746 1.30143 21.1818 1.30143Z" fill="#40545E"/>
</svg>
