<svg width="512" height="393" viewBox="0 0 512 393" fill="none" xmlns="http://www.w3.org/2000/svg">
<path d="M208.495 294.352H85.8502C81.4681 294.352 77.42 296.69 75.2291 300.484C73.0383 304.278 73.0381 308.954 75.2291 312.748C77.4201 316.543 81.4685 318.881 85.8502 318.881H208.495C212.877 318.881 216.925 316.543 219.116 312.748C221.307 308.954 221.307 304.278 219.116 300.484C216.925 296.69 212.877 294.352 208.495 294.352Z" fill="#797C7D"/>
<path d="M208.495 220.758H85.8502C81.4681 220.758 77.42 223.096 75.2291 226.89C73.0383 230.684 73.0381 235.36 75.2291 239.155C77.4201 242.949 81.4685 245.287 85.8502 245.287H208.495C212.877 245.287 216.925 242.949 219.116 239.155C221.307 235.36 221.307 230.684 219.116 226.89C216.925 223.096 212.877 220.758 208.495 220.758Z" fill="#797C7D"/>
<path d="M85.8502 147.172C81.4681 147.172 77.42 149.51 75.2291 153.304C73.0383 157.098 73.0381 161.774 75.2291 165.569C77.4201 169.363 81.4685 171.701 85.8502 171.701H208.495C212.877 171.701 216.925 169.363 219.116 165.569C221.307 161.774 221.307 157.098 219.116 153.304C216.925 149.51 212.877 147.172 208.495 147.172H85.8502Z" fill="#797C7D"/>
<path d="M290.755 77.1802L217.168 3.59313C214.868 1.29194 211.75 0 208.497 0H49.058C36.0511 0.0127755 23.5806 5.18543 14.3838 14.3838C5.18544 23.5806 0.0130821 36.0511 0 49.058V343.406C0.0127755 356.413 5.18544 368.884 14.3838 378.08C23.5806 387.279 36.0511 392.451 49.058 392.464H245.29C258.297 392.451 270.768 387.279 279.964 378.08C289.163 368.884 294.335 356.413 294.348 343.406V85.8515C294.348 82.5986 293.056 79.4798 290.755 77.1802ZM269.819 343.406C269.811 349.908 267.224 356.143 262.625 360.74C258.027 365.34 251.793 367.927 245.29 367.935H49.058C42.5554 367.927 36.3209 365.34 31.7234 360.74C27.1242 356.143 24.5372 349.908 24.529 343.406V49.0576C24.537 42.555 27.124 36.3206 31.7234 31.723C36.3209 27.1238 42.5554 24.5368 49.058 24.5286H196.232V85.8512C196.23 89.1041 197.522 92.2246 199.822 94.5258C202.123 96.8254 205.244 98.1174 208.497 98.1157H269.819L269.819 343.406Z" fill="#797C7D"/>
<path fill-rule="evenodd" clip-rule="evenodd" d="M360.126 158.379L360.966 292.641C360.999 296.339 364.018 299.299 367.695 299.278C371.381 299.224 374.354 296.226 374.32 292.528L373.48 158.266C373.459 154.589 370.44 151.628 366.742 151.662C363.065 151.683 360.104 154.702 360.126 158.379ZM350.016 320.203L385.583 319.983L384.402 130.713L348.822 130.912L349.775 281.995C349.82 282.351 349.824 282.732 349.784 283.083L350.016 320.203ZM384.765 333.335L351.006 333.562L358.774 353.968L358.794 353.956C358.905 354.192 359.007 354.46 359.077 354.72L368.136 378.497L384.745 333.347L384.765 333.335ZM348.773 117.57L384.353 117.37L384.289 106.666L348.709 106.865L348.773 117.57ZM348.617 93.4992L384.197 93.2996L384.126 80.9045C384.095 80.7585 384.097 80.621 384.098 80.4835C383.987 70.8181 376.218 63.0133 366.565 62.8176L366.217 62.8301C356.446 62.9485 348.59 70.9108 348.583 80.7004L348.67 93.4962L348.617 93.4992Z" fill="#797C7D"/>
</svg>
